<svg width="1032" height="287" viewBox="0 0 1032 287" fill="none" xmlns="http://www.w3.org/2000/svg">
<path d="M146.75 15.5C147.417 16.6667 147.917 17.9167 148.25 19.25C148.583 20.4167 148.917 21.6667 149.25 23C149.917 25.1667 150.25 27.75 150.25 30.75C150.25 32.0833 150.167 33.4167 150 34.75C150 35.9167 149.833 37.1667 149.5 38.5C149.167 39.6667 148.833 40.9167 148.5 42.25C148.333 43.4167 148 44.5833 147.5 45.75C147 47.0833 146.417 48.25 145.75 49.25C145.25 50.25 144.583 51.4167 143.75 52.75C143.083 53.9167 142.417 55.1667 141.75 56.5C141.083 57.8333 140.25 59.0833 139.25 60.25L133 66.75C131.833 67.75 130.667 68.6667 129.5 69.5C128.333 70.3333 127.083 71.1667 125.75 72C123.083 74.1667 120.5 75.9167 118 77.25C116.667 78.0833 115.333 78.9167 114 79.75C112.833 80.5833 111.5 81.3333 110 82C107.167 83.5 104.333 84.75 101.5 85.75C100 86.4167 98.5 87 97 87.5C95.5 87.8333 94 88.25 92.5 88.75C91 89.0833 89.5 89.4167 88 89.75C86.5 89.9167 85 90.1667 83.5 90.5C81.8333 90.8333 80.25 91 78.75 91C77.25 91 75.6667 91.0833 74 91.25C72.5 91.4167 71 91.5833 69.5 91.75C68 91.9167 66.4167 92 64.75 92C63.4167 92 62 91.9167 60.5 91.75C59.1667 91.5833 57.8333 91.4167 56.5 91.25C55.1667 91.25 53.75 91.3333 52.25 91.5C50.9167 91.5 49.5833 91.4167 48.25 91.25C46.9167 91.0833 45.5833 90.9167 44.25 90.75C42.9167 90.4167 41.5833 90.0833 40.25 89.75C39.9167 91.0833 39.5833 92.5 39.25 94C38.9167 95.3333 38.5833 96.6667 38.25 98C37.9167 99.5 37.75 101 37.75 102.5C37.75 103.833 37.6667 105.167 37.5 106.5C37.1667 108 36.8333 109.5 36.5 111C36.1667 112.333 35.9167 113.667 35.75 115C35.75 116.333 35.75 117.75 35.75 119.25C35.9167 120.75 35.9167 122.167 35.75 123.5C35.75 125 35.6667 126.5 35.5 128C35.5 129.333 35.5 130.75 35.5 132.25C35.5 133.75 35.5 135.25 35.5 136.75C35.5 138.25 35.5833 139.667 35.75 141C35.75 142.5 35.75 144 35.75 145.5C35.9167 147 36.0833 148.5 36.25 150L37.75 158.75C38.0833 160.25 38.5 161.75 39 163.25C39.5 164.583 39.9167 165.917 40.25 167.25C40.5833 168.75 40.9167 170.25 41.25 171.75C41.5833 173.25 42 174.667 42.5 176C43 177.333 43.5 178.75 44 180.25C44.5 181.583 45.0833 182.917 45.75 184.25C46.4167 185.583 47.0833 186.917 47.75 188.25C48.5833 189.417 49.4167 190.667 50.25 192C51.0833 193.333 51.8333 194.5 52.5 195.5C53.3333 196.5 54.1667 197.583 55 198.75L61 204.5C62 205.5 63 206.5 64 207.5C65 208.333 66.0833 209.083 67.25 209.75C68.5833 210.583 69.8333 211.167 71 211.5C72.3333 212 73.6667 212.417 75 212.75C77.5 213.417 80.25 213.75 83.25 213.75C84.75 213.75 86.25 213.667 87.75 213.5C89.25 213.333 90.75 213.083 92.25 212.75C93.75 212.417 95.25 212.083 96.75 211.75C98.4167 211.583 99.9167 211.25 101.25 210.75C102.75 210.083 104.167 209.417 105.5 208.75C106.833 208.083 108.167 207.333 109.5 206.5C112.167 205 114.667 203.25 117 201.25C118.167 200.25 119.333 199.25 120.5 198.25C121.667 197.25 122.75 196.167 123.75 195C124.75 193.833 125.583 192.583 126.25 191.25C127.083 189.917 127.917 188.583 128.75 187.25C129.583 185.917 130.333 184.583 131 183.25C131.667 181.917 132.333 180.5 133 179C133.667 177.667 134.25 176.333 134.75 175C135.417 173.5 135.917 172 136.25 170.5C136.583 169 137 167.583 137.5 166.25C138 164.75 138.417 163.25 138.75 161.75C139.083 160.25 139.167 158.667 139 157C138.833 155.333 138.75 153.667 138.75 152C139.583 151.167 140.667 151.333 142 152.5C142 154 141.917 155.5 141.75 157C141.583 158.333 141.417 159.75 141.25 161.25C141.083 162.583 140.833 164 140.5 165.5C140.167 167 139.833 168.417 139.5 169.75C139.167 171.25 138.917 172.75 138.75 174.25C138.583 175.75 138.167 177.167 137.5 178.5C137 179.833 136.417 181.167 135.75 182.5C135.083 183.667 134.333 184.917 133.5 186.25C132.667 187.583 131.833 188.833 131 190C130.333 191.167 129.583 192.417 128.75 193.75C126.917 196.083 125 198.25 123 200.25C121.833 201.417 120.667 202.417 119.5 203.25C118.333 204.083 117.167 204.917 116 205.75C114.667 206.583 113.417 207.417 112.25 208.25C111.25 209.083 110.083 209.917 108.75 210.75C107.417 211.417 106.083 212 104.75 212.5C103.417 213.167 102 213.75 100.5 214.25C99.1667 214.75 97.75 215.083 96.25 215.25C94.75 215.417 93.3333 215.583 92 215.75C90.5 216.083 89 216.333 87.5 216.5C86.1667 216.833 84.75 217 83.25 217C81.75 217 80.25 217 78.75 217C77.25 217 75.8333 216.917 74.5 216.75C73 216.417 71.5 216 70 215.5C68.6667 215.167 67.3333 214.833 66 214.5C64.6667 214 63.25 213.5 61.75 213C60.4167 212.5 59.0833 211.917 57.75 211.25C56.4167 210.583 55.1667 209.833 54 209C53 208 51.8333 207.083 50.5 206.25C49.3333 205.417 48.1667 204.583 47 203.75C46 202.75 45 201.667 44 200.5C43 199.5 42.0833 198.417 41.25 197.25C40.4167 196.083 39.5833 194.833 38.75 193.5C37.75 192.167 36.8333 190.917 36 189.75C35.1667 188.417 34.3333 187.083 33.5 185.75C32.6667 184.417 31.9167 183.083 31.25 181.75C30.75 180.25 30.1667 178.833 29.5 177.5L26.25 168.75C25.75 167.417 25.3333 166 25 164.5C24.6667 163 24.3333 161.417 24 159.75L22.5 150.75C22.1667 149.25 21.8333 147.75 21.5 146.25C21.3333 144.583 21.1667 143 21 141.5C20.8333 140 20.75 138.5 20.75 137C20.9167 135.333 21 133.75 21 132.25C21 130.583 21 129 21 127.5C21.1667 126 21.3333 124.417 21.5 122.75C21.5 121.25 21.4167 119.75 21.25 118.25C21.25 116.583 21.4167 115 21.75 113.5C21.9167 112 22.1667 110.5 22.5 109C22.8333 107.5 23.1667 105.917 23.5 104.25C23.8333 102.75 24.0833 101.25 24.25 99.75C24.5833 98.25 24.9167 96.75 25.25 95.25C25.5833 93.75 25.8333 92.25 26 90.75C26.1667 89.0833 26.4167 87.5 26.75 86H27.25C25.75 85.3333 24.25 84.75 22.75 84.25C21.4167 83.75 20.0833 83.0833 18.75 82.25C17.4167 81.4167 16.1667 80.5 15 79.5C13.8333 78.3333 12.6667 77.25 11.5 76.25C10.3333 75.0833 9.16667 74 8 73C7 71.8333 6.08333 70.5833 5.25 69.25C4.41667 67.9167 3.83333 66.5 3.5 65C3 63.5 2.5 62 2 60.5C1.66667 59 1.33333 57.5 1 56C0.666666 54.5 0.5 52.9167 0.5 51.25C0.5 49.75 0.583333 48.3333 0.75 47C0.916666 45.5 1.16667 44 1.5 42.5C1.83333 41.1667 2.16667 39.75 2.5 38.25C2.83333 36.75 3.25 35.3333 3.75 34C4.41667 32.6667 5.08333 31.4167 5.75 30.25C6.41667 28.9167 7.16667 27.5833 8 26.25C8.83333 24.9167 9.66667 23.6667 10.5 22.5C11.3333 21.3333 12.1667 20.0833 13 18.75C13.8333 17.5833 14.6667 16.4167 15.5 15.25C16.5 13.9167 17.5833 12.75 18.75 11.75C19.5833 11.75 20.0833 12 20.25 12.5C20.4167 13 20.5833 13.6667 20.75 14.5C19.75 15.3333 18.8333 16.3333 18 17.5C17.1667 18.5 16.3333 19.5833 15.5 20.75C13.6667 23.0833 12.1667 25.4167 11 27.75C9.5 29.9167 8.25 32.3333 7.25 35C6.75 36.3333 6.25 37.6667 5.75 39C5.25 40.3333 4.83333 41.6667 4.5 43C4.16667 44.3333 4.08333 45.75 4.25 47.25C4.25 48.5833 4.25 49.9167 4.25 51.25C4.25 52.75 4.25 54.25 4.25 55.75C4.08333 57.0833 4.16667 58.4167 4.5 59.75C5.16667 62.4167 6.33333 65.0833 8 67.75C8.83333 68.9167 9.66667 70 10.5 71C11.5 72 12.5833 73 13.75 74C15.75 76 18 77.75 20.5 79.25C21.6667 79.9167 22.8333 80.5833 24 81.25C25.3333 81.9167 26.75 82.5 28.25 83C28.5833 81.6667 29 80.3333 29.5 79C30 77.6667 30.5 76.3333 31 75C31.5 73.6667 31.9167 72.25 32.25 70.75C32.5833 69.25 33 67.8333 33.5 66.5L37.25 59L41.25 51.25L46 44C46.8333 42.6667 47.6667 41.4167 48.5 40.25C49.3333 39.0833 50.1667 37.9167 51 36.75L56.5 30.25L62.5 24C63.8333 22.8333 65.0833 21.6667 66.25 20.5C67.4167 19.3333 68.6667 18.25 70 17.25C72.3333 15.25 75 13.25 78 11.25C79.5 10.25 81 9.41665 82.5 8.74998C84 7.91665 85.5 7.08332 87 6.24999C88.5 5.58332 89.9167 4.99999 91.25 4.49999C92.75 3.83333 94.25 3.24999 95.75 2.74999C97.25 2.41666 98.75 2.16666 100.25 2C101.917 1.66666 103.5 1.33332 105 0.999994C106.5 0.666655 108 0.416653 109.5 0.249988C111.167 0.0833239 112.75 -8.34465e-06 114.25 -8.34465e-06C116.083 -8.34465e-06 117.75 0.0833239 119.25 0.249988C120.917 0.416653 122.5 0.666655 124 0.999994C127.333 1.49999 130.5 2.49998 133.5 3.99998C135 4.66665 136.417 5.49999 137.75 6.5C139.083 7.33333 140.333 8.24999 141.5 9.24999C142.5 10.25 143.417 11.25 144.25 12.25C145.25 13.0833 146.083 14.1667 146.75 15.5ZM145.75 39.75C146.25 38.25 146.667 36.75 147 35.25C147.5 33.75 147.75 32.25 147.75 30.75C147.75 27.25 147.167 24.0833 146 21.25C145.5 19.75 144.75 18.3333 143.75 17C142.917 15.6667 141.917 14.3333 140.75 13C138.583 10.6667 136.083 8.74999 133.25 7.24999C131.917 6.58332 130.5 5.99999 129 5.5C127.5 4.83333 125.833 4.33332 124 3.99998C122.5 3.66666 120.917 3.41666 119.25 3.24999C117.75 3.08332 116.083 2.99998 114.25 2.99998C112.917 2.99998 111.5 3.16665 110 3.49999C108.667 3.83332 107.25 4.16665 105.75 4.49999C104.417 4.83332 103 5.16666 101.5 5.5C100.167 5.66666 98.8333 5.99999 97.5 6.5C96.1667 6.99999 94.8333 7.58332 93.5 8.24999C92.3333 8.91666 91.0833 9.66666 89.75 10.5C88.5833 11.1667 87.3333 11.9167 86 12.75C84.8333 13.4167 83.6667 14.1667 82.5 15C81.3333 15.8333 80.25 16.75 79.25 17.75C78.25 18.5833 77.1667 19.5 76 20.5C75 21.5 73.9167 22.5 72.75 23.5C71.75 24.5 70.75 25.5833 69.75 26.75C67.75 29.0833 65.75 31.5833 63.75 34.25C61.75 36.9167 60.0833 39.5833 58.75 42.25C57.9167 43.5833 57.1667 45 56.5 46.5C55.8333 47.8333 55.0833 49.25 54.25 50.75C52.5833 53.9167 51.1667 56.8333 50 59.5C49.3333 60.8333 48.6667 62.25 48 63.75C47.5 65.25 47 66.75 46.5 68.25L43.25 77.25C42.75 78.9167 42.3333 80.5 42 82C41.6667 83.5 41.3333 85 41 86.5L48.75 88L56.75 88.75H64.75C66.25 88.75 67.75 88.75 69.25 88.75C70.9167 88.5833 72.5 88.4167 74 88.25C75.5 88.0833 77 87.9167 78.5 87.75C80 87.5833 81.5 87.3333 83 87C84.5 86.6667 86 86.4167 87.5 86.25C89.1667 85.9167 90.6667 85.5833 92 85.25C93.5 84.9167 95 84.5 96.5 84C98 83.5 99.5 83 101 82.5C102.333 82 103.667 81.4167 105 80.75C106.333 79.9167 107.667 79.1667 109 78.5C110.5 77.6667 111.917 77.0833 113.25 76.75C114.75 76.25 116.167 75.5833 117.5 74.75C118.833 73.9167 120.083 73 121.25 72C122.417 70.8333 123.583 69.8333 124.75 69L131.75 63C134.25 60.5 136.25 58.1667 137.75 56C138.75 54.6667 139.667 53.4167 140.5 52.25C141.333 51.0833 142.167 49.8333 143 48.5C143.833 47.1667 144.417 45.75 144.75 44.25C145.083 42.75 145.417 41.25 145.75 39.75ZM266.809 165.5C267.642 165.333 268.225 165.25 268.559 165.25C269.059 165.25 269.475 165.667 269.809 166.5L268.309 172.25C267.975 173.083 267.725 174 267.559 175C267.392 176 267.142 176.917 266.809 177.75L264.559 183.5C264.225 184.333 263.892 185.25 263.559 186.25C263.392 187.25 263.142 188.167 262.809 189C262.475 190 262.059 190.917 261.559 191.75C261.059 192.583 260.559 193.417 260.059 194.25C259.725 195.083 259.392 195.917 259.059 196.75C258.725 197.417 258.392 198.083 258.059 198.75L255.559 203C254.892 203.667 254.309 204.333 253.809 205C253.309 205.5 252.725 206 252.059 206.5C250.892 207.667 249.475 208.5 247.809 209C246.142 209.833 244.559 210.25 243.059 210.25C241.392 210.25 239.809 210 238.309 209.5C237.475 209.167 236.725 208.917 236.059 208.75C235.392 208.417 234.725 208 234.059 207.5C232.892 206.833 231.725 205.75 230.559 204.25C229.392 203.083 228.309 201.5 227.309 199.5C226.975 198.667 226.642 197.833 226.309 197C225.975 196.167 225.642 195.25 225.309 194.25L224.059 188.75L223.059 183C222.892 182.167 222.725 181.333 222.559 180.5C222.559 179.5 222.559 178.5 222.559 177.5C222.559 176.5 222.559 175.583 222.559 174.75C222.559 173.75 222.475 172.75 222.309 171.75V166C222.309 165.167 222.309 164.333 222.309 163.5C222.475 162.5 222.559 161.5 222.559 160.5L221.059 165.75L219.559 171.25L217.809 176.5C217.475 177.5 217.142 178.5 216.809 179.5C216.642 180.333 216.392 181.167 216.059 182L212.059 192.5C211.725 193.333 211.309 194.167 210.809 195C210.309 195.833 209.809 196.667 209.309 197.5C208.809 198.333 208.309 199.083 207.809 199.75C207.309 200.417 206.725 201.167 206.059 202L202.309 206C200.309 207.5 198.642 208.417 197.309 208.75C195.309 209.583 193.475 210 191.809 210C190.975 210 190.142 210 189.309 210C188.475 209.833 187.642 209.667 186.809 209.5C185.975 209.167 185.142 208.833 184.309 208.5C183.642 208 182.892 207.583 182.059 207.25C181.225 206.917 180.475 206.583 179.809 206.25C179.142 205.917 178.392 205.417 177.559 204.75C176.892 204.25 176.309 203.667 175.809 203C175.309 202.333 174.809 201.667 174.309 201C173.642 200.333 172.975 199.75 172.309 199.25C171.809 198.583 171.309 197.833 170.809 197C170.475 196.167 170.059 195.417 169.559 194.75C169.059 194.083 168.559 193.333 168.059 192.5C167.392 191.333 166.809 189.75 166.309 187.75L164.309 183L163.059 177.75L162.309 172.75C162.142 171.917 161.975 171.083 161.809 170.25C161.809 169.25 161.809 168.333 161.809 167.5C161.809 166.667 161.809 165.833 161.809 165C161.975 164 162.059 163.083 162.059 162.25C162.059 161.417 162.059 160.583 162.059 159.75C162.059 158.917 162.142 158.083 162.309 157.25L163.059 152C163.392 150 163.725 148.333 164.059 147L165.559 142L167.309 137.25C167.642 136.417 167.975 135.667 168.309 135C168.642 134.167 168.975 133.333 169.309 132.5L171.559 127.75L177.559 119.25L180.809 115.5L184.809 111.5C185.642 110.833 186.392 110.333 187.059 110C187.725 109.5 188.475 108.917 189.309 108.25C190.142 107.75 190.892 107.25 191.559 106.75C192.225 106.083 192.975 105.583 193.809 105.25C195.309 104.25 196.975 103.5 198.809 103C199.642 102.667 200.475 102.333 201.309 102C202.309 101.667 203.225 101.417 204.059 101.25C204.892 100.917 205.725 100.667 206.559 100.5C207.559 100.333 208.475 100.167 209.309 100H214.809C215.809 100 216.725 100.083 217.559 100.25C218.392 100.25 219.225 100.333 220.059 100.5C222.392 100.833 224.142 101.167 225.309 101.5C226.809 101.833 228.309 102.667 229.809 104C231.809 105.5 233.142 107 233.809 108.5C234.309 109.333 234.559 110.25 234.559 111.25C234.725 112.25 234.809 113.25 234.809 114.25C234.809 115.083 234.809 115.917 234.809 116.75C234.809 117.583 234.642 118.417 234.309 119.25C233.975 120.083 233.559 120.833 233.059 121.5C232.725 122.167 232.309 122.917 231.809 123.75C231.475 124.583 230.975 125.25 230.309 125.75C229.809 126.25 229.225 126.833 228.559 127.5C227.892 128.167 227.225 128.833 226.559 129.5C226.059 130 225.392 130.417 224.559 130.75C223.725 131.25 222.975 131.75 222.309 132.25C221.642 132.583 220.892 132.917 220.059 133.25L215.309 135C214.642 134.333 214.225 133.917 214.059 133.75C213.892 133.417 213.975 132.833 214.309 132C215.142 131.667 215.892 131.333 216.559 131C217.392 130.5 218.225 130.083 219.059 129.75C219.892 129.417 220.725 129.083 221.559 128.75C222.392 128.417 223.142 128 223.809 127.5C224.642 126.833 225.392 126.25 226.059 125.75C226.725 125.083 227.309 124.417 227.809 123.75C228.809 122.417 229.809 121 230.809 119.5C231.475 117.667 231.809 115.917 231.809 114.25C231.809 113.417 231.725 112.667 231.559 112C231.559 111.167 231.392 110.417 231.059 109.75C230.725 109.083 230.225 108.583 229.559 108.25C229.059 107.75 228.475 107.25 227.809 106.75C226.809 105.75 225.559 105 224.059 104.5C223.225 104.167 222.475 103.917 221.809 103.75C221.142 103.583 220.392 103.417 219.559 103.25C218.725 103.083 217.892 103.083 217.059 103.25C216.392 103.25 215.642 103.25 214.809 103.25C213.975 103.25 213.059 103.25 212.059 103.25C211.225 103.083 210.392 103.167 209.559 103.5C208.725 103.667 207.809 103.917 206.809 104.25C205.975 104.583 205.142 104.917 204.309 105.25C203.475 105.583 202.642 106 201.809 106.5C201.142 106.833 200.392 107.25 199.559 107.75C198.725 108.25 197.975 108.833 197.309 109.5C196.809 110 196.225 110.583 195.559 111.25C194.892 111.917 194.225 112.5 193.559 113C192.892 113.5 192.225 114.167 191.559 115C191.059 115.667 190.475 116.417 189.809 117.25C189.309 117.917 188.809 118.667 188.309 119.5C187.809 120.333 187.309 121.167 186.809 122C186.475 122.833 186.059 123.667 185.559 124.5L183.309 129.75C182.975 130.583 182.642 131.5 182.309 132.5C182.142 133.333 181.892 134.25 181.559 135.25L179.809 140.5L178.559 146.25L177.559 152C177.225 153.333 176.892 155.167 176.559 157.5C176.392 158.333 176.225 159.25 176.059 160.25C176.059 161.083 176.059 161.917 176.059 162.75C175.892 163.583 175.809 164.5 175.809 165.5C175.975 166.333 176.059 167.167 176.059 168C176.059 168.833 175.975 169.75 175.809 170.75C175.809 171.583 175.809 172.417 175.809 173.25C175.809 174.083 175.809 175 175.809 176C175.975 176.833 176.142 177.667 176.309 178.5C176.309 179.333 176.392 180.167 176.559 181C176.725 181.833 176.892 182.667 177.059 183.5L177.809 188.75L179.059 193.75C179.392 194.583 179.725 195.417 180.059 196.25C180.392 196.917 180.725 197.667 181.059 198.5C181.559 199.333 181.975 200.167 182.309 201C182.809 201.667 183.392 202.333 184.059 203C184.559 203.667 185.059 204.25 185.559 204.75C186.225 205.083 186.892 205.417 187.559 205.75C189.225 206.417 190.642 206.75 191.809 206.75C193.642 206.75 195.392 206.333 197.059 205.5C198.559 204.833 200.059 203.75 201.559 202.25C202.225 201.583 202.809 200.917 203.309 200.25C203.975 199.583 204.559 198.833 205.059 198C206.059 196.833 207.059 195.333 208.059 193.5C208.392 192.667 208.725 191.833 209.059 191C209.392 190.167 209.725 189.25 210.059 188.25C210.392 187.417 210.725 186.667 211.059 186C211.559 185.167 211.975 184.333 212.309 183.5C212.975 182 213.559 180.333 214.059 178.5C214.392 177.667 214.642 176.833 214.809 176C214.975 175 215.225 174.083 215.559 173.25L217.059 168L218.809 163C219.142 162.167 219.309 161.333 219.309 160.5C219.475 159.5 219.642 158.583 219.809 157.75L221.559 152.5L222.809 147.5L224.059 142.25C224.392 141.417 224.559 140.583 224.559 139.75C224.725 138.75 224.892 137.833 225.059 137C225.225 136.667 225.309 136.333 225.309 136C225.309 135.667 225.475 135.5 225.809 135.5C227.475 135.333 228.559 135.417 229.059 135.75C229.559 135.917 230.642 136.083 232.309 136.25C233.975 136.583 235.059 136.667 235.559 136.5C236.225 136.167 237.309 136.333 238.809 137C239.142 137.167 239.142 137.417 238.809 137.75C238.642 138.083 238.475 138.417 238.309 138.75C238.142 139.583 237.975 140.5 237.809 141.5C237.809 142.5 237.642 143.417 237.309 144.25L236.309 149.75L234.809 160.75L233.809 166.25C233.642 167.083 233.559 168 233.559 169C233.725 170 233.725 170.917 233.559 171.75C233.559 172.75 233.475 173.75 233.309 174.75C233.142 175.583 233.059 176.417 233.059 177.25C232.892 178.25 232.892 179.25 233.059 180.25C233.225 181.083 233.309 182 233.309 183C233.309 183.833 233.225 184.75 233.059 185.75C233.059 186.75 233.142 187.667 233.309 188.5C233.309 189.5 233.392 190.5 233.559 191.5C233.725 192.333 233.892 193.167 234.059 194C234.225 195 234.309 196 234.309 197C234.309 197.833 234.475 198.667 234.809 199.5C235.475 201.167 236.392 202.75 237.559 204.25C239.225 206.25 241.059 207.25 243.059 207.25V207C244.059 207 244.975 206.833 245.809 206.5C246.642 206.167 247.475 205.75 248.309 205.25C249.642 204.417 250.975 203.167 252.309 201.5C253.309 200.5 254.392 199 255.559 197C256.059 196.167 256.475 195.333 256.809 194.5C257.309 193.667 257.725 192.833 258.059 192C258.392 191.167 258.725 190.333 259.059 189.5C259.559 188.667 259.975 187.833 260.309 187L262.309 181.75L263.559 176.25C263.892 175.417 264.142 174.583 264.309 173.75C264.642 172.75 264.975 171.833 265.309 171L266.809 165.5ZM306.068 100C307.068 100 307.985 100 308.818 100C309.818 99.8333 310.818 99.9167 311.818 100.25C312.652 100.583 313.485 100.917 314.318 101.25C315.318 101.583 316.235 101.917 317.068 102.25C318.902 103.25 320.485 104.25 321.818 105.25C322.485 105.75 323.152 106.333 323.818 107C324.485 107.5 325.235 108.167 326.068 109C326.568 109.667 326.985 110.333 327.318 111C327.818 111.667 328.318 112.417 328.818 113.25C329.318 113.917 329.735 114.667 330.068 115.5C330.402 116.167 330.735 116.917 331.068 117.75C331.402 118.583 331.735 119.333 332.068 120C332.568 120.667 332.985 121.417 333.318 122.25C333.652 123.083 333.902 123.917 334.068 124.75C334.235 125.583 334.485 126.417 334.818 127.25C335.152 128.083 335.235 128.917 335.068 129.75C335.068 130.583 335.152 131.417 335.318 132.25C335.485 133.083 335.652 133.917 335.818 134.75C336.152 135.583 336.318 136.417 336.318 137.25C336.485 138.083 336.568 139 336.568 140C336.735 140.833 336.818 141.667 336.818 142.5C336.818 143.333 336.735 144.167 336.568 145C336.568 145.833 336.568 146.667 336.568 147.5L335.068 158C334.735 158.833 334.485 159.75 334.318 160.75C334.318 161.583 334.235 162.417 334.068 163.25L332.568 168.25L331.068 173.5L328.818 178.25C328.485 179.083 328.068 179.917 327.568 180.75C327.068 181.417 326.652 182.167 326.318 183C325.818 183.833 325.318 184.667 324.818 185.5C324.485 186.167 324.152 186.917 323.818 187.75L320.568 192L317.068 196L313.318 199.75L309.068 203L304.568 206C303.735 206.333 302.902 206.667 302.068 207C301.235 207.167 300.402 207.417 299.568 207.75C298.735 208.083 297.818 208.417 296.818 208.75C295.985 208.917 295.152 209.083 294.318 209.25C293.485 209.583 292.568 209.75 291.568 209.75C290.735 209.75 289.902 209.75 289.068 209.75C288.068 209.75 287.068 209.75 286.068 209.75C285.068 209.75 284.152 209.583 283.318 209.25C282.485 208.917 281.735 208.417 281.068 207.75C280.568 207.083 279.902 206.417 279.068 205.75C278.402 205.083 277.735 204.417 277.068 203.75C276.568 203.083 276.068 202.333 275.568 201.5C275.235 200.667 274.818 199.833 274.318 199C273.985 198 273.652 197 273.318 196C273.152 196.833 273.068 197.833 273.068 199C273.235 200 273.318 200.917 273.318 201.75C273.152 202.75 272.985 203.75 272.818 204.75C272.818 205.583 272.818 206.5 272.818 207.5C272.652 208.333 272.568 209.167 272.568 210C272.735 211 272.735 212 272.568 213C272.568 213.833 272.485 214.75 272.318 215.75C272.318 216.75 272.235 217.667 272.068 218.5C272.068 219.333 271.985 220.25 271.818 221.25C271.652 222.25 271.485 223.167 271.318 224C271.318 224.833 271.318 225.75 271.318 226.75C271.318 227.75 271.235 228.667 271.068 229.5V235C270.902 236 270.735 236.917 270.568 237.75C270.568 238.75 270.568 239.667 270.568 240.5C270.402 241.5 270.318 242.417 270.318 243.25C270.485 244.25 270.568 245.167 270.568 246C270.402 247 270.235 247.917 270.068 248.75C270.068 249.75 270.068 250.75 270.068 251.75L269.318 257.25C269.318 258.083 269.152 258.917 268.818 259.75C268.652 260.75 268.568 261.75 268.568 262.75C268.402 263.583 268.235 264.417 268.068 265.25C268.068 266.25 268.068 267.25 268.068 268.25C267.902 269.083 267.735 270 267.568 271C267.568 272 267.568 272.917 267.568 273.75L267.068 279.25C266.902 280.25 266.652 281.167 266.318 282C265.985 282.833 265.735 283.667 265.568 284.5C265.568 284.833 265.652 285.083 265.818 285.25C265.985 285.583 265.902 285.833 265.568 286C264.235 286.167 263.318 286.167 262.818 286C262.318 285.833 261.318 285.583 259.818 285.25C258.485 285.083 257.568 285.083 257.068 285.25C256.402 285.417 255.402 285.167 254.068 284.5C253.735 284.333 253.652 284.083 253.818 283.75C253.985 283.583 254.152 283.25 254.318 282.75C254.485 282.25 254.568 281.5 254.568 280.5C254.568 279.667 254.735 278.667 255.068 277.5C255.068 276.667 255.235 275.75 255.568 274.75C255.902 273.917 256.152 273 256.318 272C256.318 271.167 256.318 270.25 256.318 269.25C256.318 268.417 256.402 267.5 256.568 266.5C256.568 265.667 256.652 264.75 256.818 263.75C256.818 262.917 256.818 262 256.818 261L257.568 255.75L258.318 250.25C258.318 249.417 258.402 248.5 258.568 247.5C258.735 246.667 258.902 245.75 259.068 244.75C259.235 243.917 259.235 243 259.068 242C258.902 241.167 258.902 240.25 259.068 239.25L259.568 233.75L260.318 228.5C260.318 227.667 260.402 226.75 260.568 225.75C260.735 224.75 260.818 223.833 260.818 223C260.985 222.167 261.068 221.25 261.068 220.25C260.902 219.25 260.818 218.333 260.818 217.5L261.568 212L262.068 206.5L262.568 201.25C262.568 200.25 262.652 199.333 262.818 198.5C262.985 197.667 263.152 196.833 263.318 196C263.485 195.167 263.652 194.333 263.818 193.5C263.818 192.5 263.818 191.583 263.818 190.75L264.318 185.25L265.318 174.75C265.485 173.917 265.568 173.083 265.568 172.25C265.402 171.25 265.402 170.333 265.568 169.5L266.318 164.25V159C266.485 158.167 266.568 157.333 266.568 156.5C266.735 155.5 266.818 154.583 266.818 153.75C266.985 152.917 266.985 152.083 266.818 151.25C266.818 150.25 266.902 149.333 267.068 148.5L268.068 143.25L269.068 132.75C269.068 131.917 269.068 131.083 269.068 130.25C269.068 129.25 269.152 128.333 269.318 127.5C269.485 126.667 269.652 125.833 269.818 125C269.985 124 270.068 123.083 270.068 122.25L270.568 117L271.318 111.75L271.818 106.5C271.985 105.5 272.068 104.583 272.068 103.75C272.235 102.75 272.318 101.833 272.318 101C273.485 100.667 274.568 100.75 275.568 101.25C275.735 102.083 275.818 103 275.818 104C275.985 104.833 276.068 105.833 276.068 107C276.068 107.833 275.985 108.667 275.818 109.5C275.652 110.333 275.568 111.25 275.568 112.25V117.75C275.568 118.583 275.652 119.5 275.818 120.5C275.985 121.5 276.068 122.417 276.068 123.25C276.068 124.25 276.068 125.25 276.068 126.25C276.068 127.083 275.985 127.917 275.818 128.75C275.818 129.75 275.735 130.75 275.568 131.75C275.402 132.583 275.235 133.417 275.068 134.25C275.068 135.25 275.068 136.25 275.068 137.25C275.235 138.083 275.318 138.917 275.318 139.75V145.25C275.318 146.25 275.235 147.167 275.068 148C275.068 148.833 275.068 149.75 275.068 150.75L276.568 145.75C276.902 144.917 277.068 144.083 277.068 143.25C277.068 142.25 277.235 141.333 277.568 140.5L279.318 135.5C279.652 134.667 279.902 133.917 280.068 133.25C280.402 132.417 280.735 131.583 281.068 130.75C281.402 129.917 281.568 129.083 281.568 128.25C281.735 127.25 281.985 126.333 282.318 125.5C282.652 124.667 283.068 123.917 283.568 123.25C284.068 122.417 284.485 121.583 284.818 120.75C285.318 119.25 285.985 117.583 286.818 115.75C287.152 114.917 287.568 114.167 288.068 113.5C288.735 112.833 289.235 112.167 289.568 111.5L292.318 106.75C292.985 106.083 293.652 105.5 294.318 105C294.985 104.5 295.735 104 296.568 103.5C298.068 102.167 299.568 101.333 301.068 101C301.902 100.667 302.735 100.417 303.568 100.25C304.402 100.083 305.235 100 306.068 100ZM275.568 193.5C275.902 194.333 276.152 195.167 276.318 196C276.652 196.667 276.985 197.417 277.318 198.25C277.985 199.75 278.902 201.25 280.068 202.75C280.568 203.417 281.152 204 281.818 204.5C282.652 204.833 283.485 205.167 284.318 205.5C285.652 206.167 287.235 206.5 289.068 206.5C291.068 206.5 292.818 206.167 294.318 205.5C295.485 205.167 297.068 204.25 299.068 202.75C299.735 202.25 300.402 201.75 301.068 201.25C301.735 200.75 302.402 200.083 303.068 199.25C303.735 198.583 304.318 198 304.818 197.5C305.485 196.833 306.068 196.083 306.568 195.25C307.235 194.417 307.735 193.667 308.068 193C308.568 192.167 309.068 191.333 309.568 190.5C310.735 188.833 311.652 187.167 312.318 185.5L314.818 180.25C315.152 179.417 315.402 178.5 315.568 177.5C315.902 176.5 316.235 175.583 316.568 174.75C316.902 173.917 317.152 173.083 317.318 172.25C317.652 171.25 317.985 170.25 318.318 169.25C318.652 168.417 318.818 167.5 318.818 166.5C318.985 165.5 319.152 164.5 319.318 163.5C319.985 161.333 320.402 159.5 320.568 158L321.068 152.25L322.068 147C322.068 146.167 322.068 145.333 322.068 144.5C322.068 143.5 322.152 142.583 322.318 141.75C322.318 140.917 322.235 140.083 322.068 139.25C322.068 138.417 322.068 137.583 322.068 136.75C322.068 135.917 321.985 135.083 321.818 134.25C321.818 133.25 321.735 132.333 321.568 131.5C321.568 130.667 321.568 129.833 321.568 129C321.568 128 321.485 127.083 321.318 126.25L320.318 121L319.068 116C318.735 115.167 318.318 114.417 317.818 113.75C317.485 112.917 317.152 112.083 316.818 111.25C315.985 109.583 314.985 108.167 313.818 107C312.652 105.5 311.568 104.583 310.568 104.25C309.735 103.917 308.985 103.75 308.318 103.75C307.652 103.583 306.902 103.5 306.068 103.5V103C303.902 103 302.068 103.333 300.568 104C299.735 104.333 299.068 104.833 298.568 105.5C298.068 106.167 297.402 106.917 296.568 107.75C295.902 108.25 295.318 108.917 294.818 109.75C294.318 110.417 293.735 111.167 293.068 112C292.568 112.667 291.985 113.333 291.318 114C290.818 114.667 290.318 115.417 289.818 116.25C289.485 117.083 289.152 118 288.818 119C288.485 119.833 288.152 120.667 287.818 121.5C287.485 122.333 287.152 123.25 286.818 124.25C286.485 125.083 286.152 125.917 285.818 126.75L283.818 132.25C283.485 133.083 283.152 134 282.818 135C282.485 135.833 282.152 136.667 281.818 137.5C281.485 138.5 281.235 139.5 281.068 140.5C281.068 141.333 280.902 142.25 280.568 143.25C280.235 144.083 279.902 145 279.568 146C279.402 146.833 279.152 147.75 278.818 148.75L277.318 154.25C276.985 155.083 276.818 156 276.818 157C276.818 158 276.652 158.917 276.318 159.75C275.985 160.75 275.652 161.75 275.318 162.75C275.152 163.583 274.902 164.417 274.568 165.25C274.402 166.083 274.318 166.917 274.318 167.75C274.485 168.583 274.568 169.417 274.568 170.25C274.402 171.083 274.235 171.917 274.068 172.75C273.902 173.417 273.818 174.167 273.818 175C273.818 175.833 273.902 176.667 274.068 177.5C274.235 178.333 274.235 179.167 274.068 180C274.068 180.833 273.985 181.667 273.818 182.5C273.652 183.167 273.485 183.917 273.318 184.75L274.318 189.25C274.485 190.083 274.652 190.833 274.818 191.5C275.152 192 275.402 192.667 275.568 193.5ZM395.912 100C396.912 100 397.829 100 398.662 100C399.662 99.8333 400.662 99.9167 401.662 100.25C402.495 100.583 403.329 100.917 404.162 101.25C405.162 101.583 406.079 101.917 406.912 102.25C408.745 103.25 410.329 104.25 411.662 105.25C412.329 105.75 412.995 106.333 413.662 107C414.329 107.5 415.079 108.167 415.912 109C416.412 109.667 416.829 110.333 417.162 111C417.662 111.667 418.162 112.417 418.662 113.25C419.162 113.917 419.579 114.667 419.912 115.5C420.245 116.167 420.579 116.917 420.912 117.75C421.245 118.583 421.579 119.333 421.912 120C422.412 120.667 422.829 121.417 423.162 122.25C423.495 123.083 423.745 123.917 423.912 124.75C424.079 125.583 424.329 126.417 424.662 127.25C424.995 128.083 425.079 128.917 424.912 129.75C424.912 130.583 424.995 131.417 425.162 132.25C425.329 133.083 425.495 133.917 425.662 134.75C425.995 135.583 426.162 136.417 426.162 137.25C426.329 138.083 426.412 139 426.412 140C426.579 140.833 426.662 141.667 426.662 142.5C426.662 143.333 426.579 144.167 426.412 145C426.412 145.833 426.412 146.667 426.412 147.5L424.912 158C424.579 158.833 424.329 159.75 424.162 160.75C424.162 161.583 424.079 162.417 423.912 163.25L422.412 168.25L420.912 173.5L418.662 178.25C418.329 179.083 417.912 179.917 417.412 180.75C416.912 181.417 416.495 182.167 416.162 183C415.662 183.833 415.162 184.667 414.662 185.5C414.329 186.167 413.995 186.917 413.662 187.75L410.412 192L406.912 196L403.162 199.75L398.912 203L394.412 206C393.579 206.333 392.745 206.667 391.912 207C391.079 207.167 390.245 207.417 389.412 207.75C388.579 208.083 387.662 208.417 386.662 208.75C385.829 208.917 384.995 209.083 384.162 209.25C383.329 209.583 382.412 209.75 381.412 209.75C380.579 209.75 379.745 209.75 378.912 209.75C377.912 209.75 376.912 209.75 375.912 209.75C374.912 209.75 373.995 209.583 373.162 209.25C372.329 208.917 371.579 208.417 370.912 207.75C370.412 207.083 369.745 206.417 368.912 205.75C368.245 205.083 367.579 204.417 366.912 203.75C366.412 203.083 365.912 202.333 365.412 201.5C365.079 200.667 364.662 199.833 364.162 199C363.829 198 363.495 197 363.162 196C362.995 196.833 362.912 197.833 362.912 199C363.079 200 363.162 200.917 363.162 201.75C362.995 202.75 362.829 203.75 362.662 204.75C362.662 205.583 362.662 206.5 362.662 207.5C362.495 208.333 362.412 209.167 362.412 210C362.579 211 362.579 212 362.412 213C362.412 213.833 362.329 214.75 362.162 215.75C362.162 216.75 362.079 217.667 361.912 218.5C361.912 219.333 361.829 220.25 361.662 221.25C361.495 222.25 361.329 223.167 361.162 224C361.162 224.833 361.162 225.75 361.162 226.75C361.162 227.75 361.079 228.667 360.912 229.5V235C360.745 236 360.579 236.917 360.412 237.75C360.412 238.75 360.412 239.667 360.412 240.5C360.245 241.5 360.162 242.417 360.162 243.25C360.329 244.25 360.412 245.167 360.412 246C360.245 247 360.079 247.917 359.912 248.75C359.912 249.75 359.912 250.75 359.912 251.75L359.162 257.25C359.162 258.083 358.995 258.917 358.662 259.75C358.495 260.75 358.412 261.75 358.412 262.75C358.245 263.583 358.079 264.417 357.912 265.25C357.912 266.25 357.912 267.25 357.912 268.25C357.745 269.083 357.579 270 357.412 271C357.412 272 357.412 272.917 357.412 273.75L356.912 279.25C356.745 280.25 356.495 281.167 356.162 282C355.829 282.833 355.579 283.667 355.412 284.5C355.412 284.833 355.495 285.083 355.662 285.25C355.829 285.583 355.745 285.833 355.412 286C354.079 286.167 353.162 286.167 352.662 286C352.162 285.833 351.162 285.583 349.662 285.25C348.329 285.083 347.412 285.083 346.912 285.25C346.245 285.417 345.245 285.167 343.912 284.5C343.579 284.333 343.495 284.083 343.662 283.75C343.829 283.583 343.995 283.25 344.162 282.75C344.329 282.25 344.412 281.5 344.412 280.5C344.412 279.667 344.579 278.667 344.912 277.5C344.912 276.667 345.079 275.75 345.412 274.75C345.745 273.917 345.995 273 346.162 272C346.162 271.167 346.162 270.25 346.162 269.25C346.162 268.417 346.245 267.5 346.412 266.5C346.412 265.667 346.495 264.75 346.662 263.75C346.662 262.917 346.662 262 346.662 261L347.412 255.75L348.162 250.25C348.162 249.417 348.245 248.5 348.412 247.5C348.579 246.667 348.745 245.75 348.912 244.75C349.079 243.917 349.079 243 348.912 242C348.745 241.167 348.745 240.25 348.912 239.25L349.412 233.75L350.162 228.5C350.162 227.667 350.245 226.75 350.412 225.75C350.579 224.75 350.662 223.833 350.662 223C350.829 222.167 350.912 221.25 350.912 220.25C350.745 219.25 350.662 218.333 350.662 217.5L351.412 212L351.912 206.5L352.412 201.25C352.412 200.25 352.495 199.333 352.662 198.5C352.829 197.667 352.995 196.833 353.162 196C353.329 195.167 353.495 194.333 353.662 193.5C353.662 192.5 353.662 191.583 353.662 190.75L354.162 185.25L355.162 174.75C355.329 173.917 355.412 173.083 355.412 172.25C355.245 171.25 355.245 170.333 355.412 169.5L356.162 164.25V159C356.329 158.167 356.412 157.333 356.412 156.5C356.579 155.5 356.662 154.583 356.662 153.75C356.829 152.917 356.829 152.083 356.662 151.25C356.662 150.25 356.745 149.333 356.912 148.5L357.912 143.25L358.912 132.75C358.912 131.917 358.912 131.083 358.912 130.25C358.912 129.25 358.995 128.333 359.162 127.5C359.329 126.667 359.495 125.833 359.662 125C359.829 124 359.912 123.083 359.912 122.25L360.412 117L361.162 111.75L361.662 106.5C361.829 105.5 361.912 104.583 361.912 103.75C362.079 102.75 362.162 101.833 362.162 101C363.329 100.667 364.412 100.75 365.412 101.25C365.579 102.083 365.662 103 365.662 104C365.829 104.833 365.912 105.833 365.912 107C365.912 107.833 365.829 108.667 365.662 109.5C365.495 110.333 365.412 111.25 365.412 112.25V117.75C365.412 118.583 365.495 119.5 365.662 120.5C365.829 121.5 365.912 122.417 365.912 123.25C365.912 124.25 365.912 125.25 365.912 126.25C365.912 127.083 365.829 127.917 365.662 128.75C365.662 129.75 365.579 130.75 365.412 131.75C365.245 132.583 365.079 133.417 364.912 134.25C364.912 135.25 364.912 136.25 364.912 137.25C365.079 138.083 365.162 138.917 365.162 139.75V145.25C365.162 146.25 365.079 147.167 364.912 148C364.912 148.833 364.912 149.75 364.912 150.75L366.412 145.75C366.745 144.917 366.912 144.083 366.912 143.25C366.912 142.25 367.079 141.333 367.412 140.5L369.162 135.5C369.495 134.667 369.745 133.917 369.912 133.25C370.245 132.417 370.579 131.583 370.912 130.75C371.245 129.917 371.412 129.083 371.412 128.25C371.579 127.25 371.829 126.333 372.162 125.5C372.495 124.667 372.912 123.917 373.412 123.25C373.912 122.417 374.329 121.583 374.662 120.75C375.162 119.25 375.829 117.583 376.662 115.75C376.995 114.917 377.412 114.167 377.912 113.5C378.579 112.833 379.079 112.167 379.412 111.5L382.162 106.75C382.829 106.083 383.495 105.5 384.162 105C384.829 104.5 385.579 104 386.412 103.5C387.912 102.167 389.412 101.333 390.912 101C391.745 100.667 392.579 100.417 393.412 100.25C394.245 100.083 395.079 100 395.912 100ZM365.412 193.5C365.745 194.333 365.995 195.167 366.162 196C366.495 196.667 366.829 197.417 367.162 198.25C367.829 199.75 368.745 201.25 369.912 202.75C370.412 203.417 370.995 204 371.662 204.5C372.495 204.833 373.329 205.167 374.162 205.5C375.495 206.167 377.079 206.5 378.912 206.5C380.912 206.5 382.662 206.167 384.162 205.5C385.329 205.167 386.912 204.25 388.912 202.75C389.579 202.25 390.245 201.75 390.912 201.25C391.579 200.75 392.245 200.083 392.912 199.25C393.579 198.583 394.162 198 394.662 197.5C395.329 196.833 395.912 196.083 396.412 195.25C397.079 194.417 397.579 193.667 397.912 193C398.412 192.167 398.912 191.333 399.412 190.5C400.579 188.833 401.495 187.167 402.162 185.5L404.662 180.25C404.995 179.417 405.245 178.5 405.412 177.5C405.745 176.5 406.079 175.583 406.412 174.75C406.745 173.917 406.995 173.083 407.162 172.25C407.495 171.25 407.829 170.25 408.162 169.25C408.495 168.417 408.662 167.5 408.662 166.5C408.829 165.5 408.995 164.5 409.162 163.5C409.829 161.333 410.245 159.5 410.412 158L410.912 152.25L411.912 147C411.912 146.167 411.912 145.333 411.912 144.5C411.912 143.5 411.995 142.583 412.162 141.75C412.162 140.917 412.079 140.083 411.912 139.25C411.912 138.417 411.912 137.583 411.912 136.75C411.912 135.917 411.829 135.083 411.662 134.25C411.662 133.25 411.579 132.333 411.412 131.5C411.412 130.667 411.412 129.833 411.412 129C411.412 128 411.329 127.083 411.162 126.25L410.162 121L408.912 116C408.579 115.167 408.162 114.417 407.662 113.75C407.329 112.917 406.995 112.083 406.662 111.25C405.829 109.583 404.829 108.167 403.662 107C402.495 105.5 401.412 104.583 400.412 104.25C399.579 103.917 398.829 103.75 398.162 103.75C397.495 103.583 396.745 103.5 395.912 103.5V103C393.745 103 391.912 103.333 390.412 104C389.579 104.333 388.912 104.833 388.412 105.5C387.912 106.167 387.245 106.917 386.412 107.75C385.745 108.25 385.162 108.917 384.662 109.75C384.162 110.417 383.579 111.167 382.912 112C382.412 112.667 381.829 113.333 381.162 114C380.662 114.667 380.162 115.417 379.662 116.25C379.329 117.083 378.995 118 378.662 119C378.329 119.833 377.995 120.667 377.662 121.5C377.329 122.333 376.995 123.25 376.662 124.25C376.329 125.083 375.995 125.917 375.662 126.75L373.662 132.25C373.329 133.083 372.995 134 372.662 135C372.329 135.833 371.995 136.667 371.662 137.5C371.329 138.5 371.079 139.5 370.912 140.5C370.912 141.333 370.745 142.25 370.412 143.25C370.079 144.083 369.745 145 369.412 146C369.245 146.833 368.995 147.75 368.662 148.75L367.162 154.25C366.829 155.083 366.662 156 366.662 157C366.662 158 366.495 158.917 366.162 159.75C365.829 160.75 365.495 161.75 365.162 162.75C364.995 163.583 364.745 164.417 364.412 165.25C364.245 166.083 364.162 166.917 364.162 167.75C364.329 168.583 364.412 169.417 364.412 170.25C364.245 171.083 364.079 171.917 363.912 172.75C363.745 173.417 363.662 174.167 363.662 175C363.662 175.833 363.745 176.667 363.912 177.5C364.079 178.333 364.079 179.167 363.912 180C363.912 180.833 363.829 181.667 363.662 182.5C363.495 183.167 363.329 183.917 363.162 184.75L364.162 189.25C364.329 190.083 364.495 190.833 364.662 191.5C364.995 192 365.245 192.667 365.412 193.5ZM550.256 165.5C551.089 165.333 551.673 165.25 552.006 165.25C552.506 165.25 552.923 165.667 553.256 166.5L551.756 172.25C551.423 173.083 551.173 174 551.006 175C550.839 176 550.589 176.917 550.256 177.75L548.006 183.5C547.673 184.333 547.339 185.25 547.006 186.25C546.839 187.25 546.589 188.167 546.256 189C545.923 190 545.506 190.917 545.006 191.75C544.506 192.583 544.006 193.417 543.506 194.25C543.173 195.083 542.839 195.917 542.506 196.75C542.173 197.417 541.839 198.083 541.506 198.75L539.006 203C538.339 203.667 537.756 204.333 537.256 205C536.756 205.5 536.173 206 535.506 206.5C534.339 207.667 532.923 208.5 531.256 209C529.589 209.833 528.006 210.25 526.506 210.25C524.839 210.25 523.256 210 521.756 209.5C520.923 209.167 520.173 208.917 519.506 208.75C518.839 208.417 518.173 208 517.506 207.5C516.339 206.833 515.173 205.75 514.006 204.25C512.839 203.083 511.756 201.5 510.756 199.5C510.423 198.667 510.089 197.833 509.756 197C509.423 196.167 509.089 195.25 508.756 194.25L507.506 188.75L506.506 183C506.339 182.167 506.173 181.333 506.006 180.5C506.006 179.5 506.006 178.5 506.006 177.5C506.006 176.5 506.006 175.583 506.006 174.75C506.006 173.75 505.923 172.75 505.756 171.75V166C505.756 165.167 505.756 164.333 505.756 163.5C505.923 162.5 506.006 161.5 506.006 160.5L504.506 165.75L503.006 171.25L501.256 176.5C500.923 177.5 500.589 178.5 500.256 179.5C500.089 180.333 499.839 181.167 499.506 182L495.506 192.5C495.173 193.333 494.756 194.167 494.256 195C493.756 195.833 493.256 196.667 492.756 197.5C492.256 198.333 491.756 199.083 491.256 199.75C490.756 200.417 490.173 201.167 489.506 202L485.756 206C483.756 207.5 482.089 208.417 480.756 208.75C478.756 209.583 476.923 210 475.256 210C474.423 210 473.589 210 472.756 210C471.923 209.833 471.089 209.667 470.256 209.5C469.423 209.167 468.589 208.833 467.756 208.5C467.089 208 466.339 207.583 465.506 207.25C464.673 206.917 463.923 206.583 463.256 206.25C462.589 205.917 461.839 205.417 461.006 204.75C460.339 204.25 459.756 203.667 459.256 203C458.756 202.333 458.256 201.667 457.756 201C457.089 200.333 456.423 199.75 455.756 199.25C455.256 198.583 454.756 197.833 454.256 197C453.923 196.167 453.506 195.417 453.006 194.75C452.506 194.083 452.006 193.333 451.506 192.5C450.839 191.333 450.256 189.75 449.756 187.75L447.756 183L446.506 177.75L445.756 172.75C445.589 171.917 445.423 171.083 445.256 170.25C445.256 169.25 445.256 168.333 445.256 167.5C445.256 166.667 445.256 165.833 445.256 165C445.423 164 445.506 163.083 445.506 162.25C445.506 161.417 445.506 160.583 445.506 159.75C445.506 158.917 445.589 158.083 445.756 157.25L446.506 152C446.839 150 447.173 148.333 447.506 147L449.006 142L450.756 137.25C451.089 136.417 451.423 135.667 451.756 135C452.089 134.167 452.423 133.333 452.756 132.5L455.006 127.75L461.006 119.25L464.256 115.5L468.256 111.5C469.089 110.833 469.839 110.333 470.506 110C471.173 109.5 471.923 108.917 472.756 108.25C473.589 107.75 474.339 107.25 475.006 106.75C475.673 106.083 476.423 105.583 477.256 105.25C478.756 104.25 480.423 103.5 482.256 103C483.089 102.667 483.923 102.333 484.756 102C485.756 101.667 486.673 101.417 487.506 101.25C488.339 100.917 489.173 100.667 490.006 100.5C491.006 100.333 491.923 100.167 492.756 100H498.256C499.256 100 500.173 100.083 501.006 100.25C501.839 100.25 502.673 100.333 503.506 100.5C505.839 100.833 507.589 101.167 508.756 101.5C510.256 101.833 511.756 102.667 513.256 104C515.256 105.5 516.589 107 517.256 108.5C517.756 109.333 518.006 110.25 518.006 111.25C518.173 112.25 518.256 113.25 518.256 114.25C518.256 115.083 518.256 115.917 518.256 116.75C518.256 117.583 518.089 118.417 517.756 119.25C517.423 120.083 517.006 120.833 516.506 121.5C516.173 122.167 515.756 122.917 515.256 123.75C514.923 124.583 514.423 125.25 513.756 125.75C513.256 126.25 512.673 126.833 512.006 127.5C511.339 128.167 510.673 128.833 510.006 129.5C509.506 130 508.839 130.417 508.006 130.75C507.173 131.25 506.423 131.75 505.756 132.25C505.089 132.583 504.339 132.917 503.506 133.25L498.756 135C498.089 134.333 497.673 133.917 497.506 133.75C497.339 133.417 497.423 132.833 497.756 132C498.589 131.667 499.339 131.333 500.006 131C500.839 130.5 501.673 130.083 502.506 129.75C503.339 129.417 504.173 129.083 505.006 128.75C505.839 128.417 506.589 128 507.256 127.5C508.089 126.833 508.839 126.25 509.506 125.75C510.173 125.083 510.756 124.417 511.256 123.75C512.256 122.417 513.256 121 514.256 119.5C514.923 117.667 515.256 115.917 515.256 114.25C515.256 113.417 515.173 112.667 515.006 112C515.006 111.167 514.839 110.417 514.506 109.75C514.173 109.083 513.673 108.583 513.006 108.25C512.506 107.75 511.923 107.25 511.256 106.75C510.256 105.75 509.006 105 507.506 104.5C506.673 104.167 505.923 103.917 505.256 103.75C504.589 103.583 503.839 103.417 503.006 103.25C502.173 103.083 501.339 103.083 500.506 103.25C499.839 103.25 499.089 103.25 498.256 103.25C497.423 103.25 496.506 103.25 495.506 103.25C494.673 103.083 493.839 103.167 493.006 103.5C492.173 103.667 491.256 103.917 490.256 104.25C489.423 104.583 488.589 104.917 487.756 105.25C486.923 105.583 486.089 106 485.256 106.5C484.589 106.833 483.839 107.25 483.006 107.75C482.173 108.25 481.423 108.833 480.756 109.5C480.256 110 479.673 110.583 479.006 111.25C478.339 111.917 477.673 112.5 477.006 113C476.339 113.5 475.673 114.167 475.006 115C474.506 115.667 473.923 116.417 473.256 117.25C472.756 117.917 472.256 118.667 471.756 119.5C471.256 120.333 470.756 121.167 470.256 122C469.923 122.833 469.506 123.667 469.006 124.5L466.756 129.75C466.423 130.583 466.089 131.5 465.756 132.5C465.589 133.333 465.339 134.25 465.006 135.25L463.256 140.5L462.006 146.25L461.006 152C460.673 153.333 460.339 155.167 460.006 157.5C459.839 158.333 459.673 159.25 459.506 160.25C459.506 161.083 459.506 161.917 459.506 162.75C459.339 163.583 459.256 164.5 459.256 165.5C459.423 166.333 459.506 167.167 459.506 168C459.506 168.833 459.423 169.75 459.256 170.75C459.256 171.583 459.256 172.417 459.256 173.25C459.256 174.083 459.256 175 459.256 176C459.423 176.833 459.589 177.667 459.756 178.5C459.756 179.333 459.839 180.167 460.006 181C460.173 181.833 460.339 182.667 460.506 183.5L461.256 188.75L462.506 193.75C462.839 194.583 463.173 195.417 463.506 196.25C463.839 196.917 464.173 197.667 464.506 198.5C465.006 199.333 465.423 200.167 465.756 201C466.256 201.667 466.839 202.333 467.506 203C468.006 203.667 468.506 204.25 469.006 204.75C469.673 205.083 470.339 205.417 471.006 205.75C472.673 206.417 474.089 206.75 475.256 206.75C477.089 206.75 478.839 206.333 480.506 205.5C482.006 204.833 483.506 203.75 485.006 202.25C485.673 201.583 486.256 200.917 486.756 200.25C487.423 199.583 488.006 198.833 488.506 198C489.506 196.833 490.506 195.333 491.506 193.5C491.839 192.667 492.173 191.833 492.506 191C492.839 190.167 493.173 189.25 493.506 188.25C493.839 187.417 494.173 186.667 494.506 186C495.006 185.167 495.423 184.333 495.756 183.5C496.423 182 497.006 180.333 497.506 178.5C497.839 177.667 498.089 176.833 498.256 176C498.423 175 498.673 174.083 499.006 173.25L500.506 168L502.256 163C502.589 162.167 502.756 161.333 502.756 160.5C502.923 159.5 503.089 158.583 503.256 157.75L505.006 152.5L506.256 147.5L507.506 142.25C507.839 141.417 508.006 140.583 508.006 139.75C508.173 138.75 508.339 137.833 508.506 137C508.673 136.667 508.756 136.333 508.756 136C508.756 135.667 508.923 135.5 509.256 135.5C510.923 135.333 512.006 135.417 512.506 135.75C513.006 135.917 514.089 136.083 515.756 136.25C517.423 136.583 518.506 136.667 519.006 136.5C519.673 136.167 520.756 136.333 522.256 137C522.589 137.167 522.589 137.417 522.256 137.75C522.089 138.083 521.923 138.417 521.756 138.75C521.589 139.583 521.423 140.5 521.256 141.5C521.256 142.5 521.089 143.417 520.756 144.25L519.756 149.75L518.256 160.75L517.256 166.25C517.089 167.083 517.006 168 517.006 169C517.173 170 517.173 170.917 517.006 171.75C517.006 172.75 516.923 173.75 516.756 174.75C516.589 175.583 516.506 176.417 516.506 177.25C516.339 178.25 516.339 179.25 516.506 180.25C516.673 181.083 516.756 182 516.756 183C516.756 183.833 516.673 184.75 516.506 185.75C516.506 186.75 516.589 187.667 516.756 188.5C516.756 189.5 516.839 190.5 517.006 191.5C517.173 192.333 517.339 193.167 517.506 194C517.673 195 517.756 196 517.756 197C517.756 197.833 517.923 198.667 518.256 199.5C518.923 201.167 519.839 202.75 521.006 204.25C522.673 206.25 524.506 207.25 526.506 207.25V207C527.506 207 528.423 206.833 529.256 206.5C530.089 206.167 530.923 205.75 531.756 205.25C533.089 204.417 534.423 203.167 535.756 201.5C536.756 200.5 537.839 199 539.006 197C539.506 196.167 539.923 195.333 540.256 194.5C540.756 193.667 541.173 192.833 541.506 192C541.839 191.167 542.173 190.333 542.506 189.5C543.006 188.667 543.423 187.833 543.756 187L545.756 181.75L547.006 176.25C547.339 175.417 547.589 174.583 547.756 173.75C548.089 172.75 548.423 171.833 548.756 171L550.256 165.5ZM653.516 165.75C653.516 165.75 653.516 165.667 653.516 165.5L656.516 166.25C656.682 166.417 656.766 166.667 656.766 167C656.432 167.833 656.099 168.667 655.766 169.5C655.432 170.333 655.099 171.167 654.766 172C654.432 172.833 654.266 173.75 654.266 174.75C654.266 175.75 654.099 176.667 653.766 177.5L652.266 182.5C651.932 183.333 651.516 184.167 651.016 185C650.516 185.833 650.099 186.667 649.766 187.5C649.432 188.333 649.182 189.25 649.016 190.25C648.849 191.083 648.599 191.917 648.266 192.75C647.932 193.583 647.516 194.417 647.016 195.25C646.516 195.917 646.099 196.667 645.766 197.5L643.016 202.25C642.349 203.083 641.682 203.833 641.016 204.5C640.516 205.167 639.932 205.75 639.266 206.25C637.599 207.583 636.016 208.583 634.516 209.25C633.682 209.583 632.849 209.833 632.016 210C631.182 210.167 630.266 210.25 629.266 210.25C628.432 210.25 627.599 210.167 626.766 210C625.932 209.667 625.099 209.333 624.266 209C622.266 208.5 620.682 207.833 619.516 207C618.849 206.5 618.182 206 617.516 205.5C616.849 205 616.266 204.333 615.766 203.5C615.099 202.833 614.432 202.167 613.766 201.5C613.266 200.833 612.849 200.083 612.516 199.25C612.016 198.417 611.516 197.583 611.016 196.75C610.682 195.917 610.349 195.083 610.016 194.25L608.766 189C608.432 188.167 608.266 187.25 608.266 186.25C608.432 185.25 608.349 184.333 608.016 183.5L607.266 178C607.099 177.167 606.932 176.333 606.766 175.5C606.599 174.667 606.516 173.75 606.516 172.75L605.266 178L602.766 183C602.266 184.5 601.599 186.167 600.766 188C600.432 188.833 600.182 189.75 600.016 190.75C599.849 191.583 599.599 192.417 599.266 193.25C598.766 194.083 598.182 194.917 597.516 195.75C597.016 196.417 596.599 197.167 596.266 198C595.766 198.833 595.266 199.583 594.766 200.25C594.266 200.917 593.682 201.583 593.016 202.25C591.682 204.083 590.516 205.5 589.516 206.5C588.682 207 587.849 207.5 587.016 208C586.182 208.333 585.349 208.667 584.516 209C583.016 209.5 581.266 209.75 579.266 209.75C578.266 209.75 577.266 209.75 576.266 209.75C575.432 209.75 574.599 209.667 573.766 209.5C572.932 209.167 572.016 208.917 571.016 208.75C570.182 208.417 569.349 208.083 568.516 207.75C567.682 207.417 566.932 207 566.266 206.5C565.599 205.833 564.849 205.167 564.016 204.5C563.182 204 562.432 203.417 561.766 202.75C561.266 202.083 560.682 201.333 560.016 200.5C559.516 199.833 558.932 199.25 558.266 198.75C557.599 198.25 557.099 197.583 556.766 196.75C556.266 196.083 555.849 195.333 555.516 194.5C555.349 193.667 555.016 192.833 554.516 192C554.182 191.167 553.766 190.417 553.266 189.75C552.766 189.083 552.349 188.333 552.016 187.5C551.682 186.667 551.516 185.833 551.516 185C551.516 184.167 551.349 183.333 551.016 182.5C550.682 181.667 550.432 180.833 550.266 180C550.266 179.167 550.182 178.333 550.016 177.5C549.849 176.667 549.682 175.833 549.516 175C549.349 174.167 549.266 173.333 549.266 172.5C549.099 171.667 549.016 170.833 549.016 170C549.016 169.167 549.016 168.333 549.016 167.5C549.016 166.667 549.016 165.833 549.016 165C549.182 164 549.266 163.083 549.266 162.25C549.432 161.417 549.432 160.583 549.266 159.75C549.099 158.917 549.099 158.083 549.266 157.25L550.016 152C550.182 150.333 550.599 148.583 551.266 146.75C551.432 145.917 551.599 145.083 551.766 144.25C552.099 143.25 552.432 142.333 552.766 141.5C553.099 140.667 553.432 139.917 553.766 139.25C554.099 138.417 554.432 137.583 554.766 136.75C555.099 135.917 555.432 135.083 555.766 134.25C556.266 133.417 556.682 132.583 557.016 131.75C557.349 130.917 557.599 130.083 557.766 129.25C558.099 128.417 558.432 127.583 558.766 126.75C559.266 125.917 559.766 125.167 560.266 124.5C560.766 123.833 561.182 123.083 561.516 122.25L568.516 114.25C569.182 113.417 569.849 112.75 570.516 112.25C571.182 111.583 571.849 110.917 572.516 110.25C573.349 109.583 574.182 109.083 575.016 108.75C575.849 108.25 576.682 107.75 577.516 107.25C579.182 105.917 580.766 104.917 582.266 104.25C583.099 103.917 583.932 103.583 584.766 103.25C585.599 102.75 586.432 102.333 587.266 102C588.266 101.667 589.182 101.333 590.016 101C591.016 100.667 591.932 100.417 592.766 100.25C593.766 100.083 594.682 100 595.516 100C596.516 100 597.516 100 598.516 100C600.849 100 603.016 100.25 605.016 100.75C606.016 101.083 606.932 101.5 607.766 102C608.766 102.333 609.682 102.917 610.516 103.75L611.016 98.75L611.766 93.75L612.766 88.5L613.766 83.5L614.266 78.25C614.599 77.4167 614.849 76.5833 615.016 75.75C615.182 74.9167 615.349 74.0833 615.516 73.25L616.516 68.25L617.016 63C617.182 62.1667 617.349 61.3333 617.516 60.5C617.849 59.6667 618.099 58.8333 618.266 58C618.599 57.1667 618.766 56.3333 618.766 55.5C618.766 54.5 618.849 53.5833 619.016 52.75L619.766 47.5C620.099 46.6667 620.349 45.8333 620.516 45C620.682 44.1667 620.849 43.3333 621.016 42.5C621.182 41.5 621.349 40.5833 621.516 39.75C621.682 38.75 621.932 37.75 622.266 36.75C622.432 35.75 622.516 34.75 622.516 33.75C622.516 32.75 622.682 31.8333 623.016 31C623.182 30 623.432 29.0833 623.766 28.25C624.099 27.25 624.349 26.3333 624.516 25.5C624.516 25.1667 624.432 24.9167 624.266 24.75C624.099 24.4167 624.182 24.25 624.516 24.25C626.182 23.9167 627.266 23.8333 627.766 24C628.266 24.1667 629.349 24.3333 631.016 24.5C632.682 24.8333 633.766 24.9167 634.266 24.75C634.932 24.4167 635.932 24.6667 637.266 25.5C637.932 25.8333 638.099 26.1667 637.766 26.5C637.432 26.8333 637.182 27.4167 637.016 28.25C636.849 29.0833 636.599 30 636.266 31C636.099 31.8333 635.932 32.6667 635.766 33.5L634.266 38.75C634.099 39.75 634.016 40.75 634.016 41.75C634.182 42.5833 634.182 43.4167 634.016 44.25L632.516 49.75C632.349 50.5833 632.099 51.5 631.766 52.5C631.599 53.3333 631.432 54.1667 631.266 55L630.516 60.5C630.349 61.3333 630.099 62.25 629.766 63.25C629.599 64.25 629.432 65.1667 629.266 66L628.766 71.5C628.599 72.3333 628.349 73.25 628.016 74.25C627.682 75.0833 627.432 75.9167 627.266 76.75L625.766 87.75C625.599 88.5833 625.432 89.5 625.266 90.5C625.099 91.3333 624.849 92.1667 624.516 93C624.349 94 624.266 95 624.266 96C624.432 96.8333 624.432 97.6667 624.266 98.5C624.099 99.5 623.849 100.5 623.516 101.5C623.349 102.333 623.182 103.167 623.016 104L622.266 109.5L621.766 114.75L621.016 120.25C621.016 121.083 621.016 122 621.016 123C621.016 123.833 620.932 124.667 620.766 125.5C620.766 126.333 620.599 127.25 620.266 128.25C620.099 129.083 619.932 129.917 619.766 130.75L619.266 136C619.266 136.833 619.182 137.75 619.016 138.75C618.849 139.583 618.682 140.417 618.516 141.25C618.349 142.083 618.266 143 618.266 144C618.266 144.833 618.266 145.667 618.266 146.5C618.099 147.5 618.016 148.5 618.016 149.5C618.016 150.333 618.016 151.167 618.016 152V157.25C618.016 158.083 617.932 159 617.766 160C617.599 160.833 617.516 161.667 617.516 162.5V168C617.516 168.833 617.432 169.75 617.266 170.75C617.266 171.583 617.266 172.417 617.266 173.25C617.266 174.083 617.349 175 617.516 176C617.682 176.833 617.849 177.667 618.016 178.5C618.016 179.5 617.932 180.417 617.766 181.25C617.599 182.083 617.599 182.917 617.766 183.75L618.266 189.25L619.266 194.5C619.599 195.5 619.932 196.417 620.266 197.25C620.599 197.917 620.932 198.667 621.266 199.5C621.599 200.5 622.016 201.333 622.516 202C623.016 202.667 623.432 203.333 623.766 204C625.432 206 627.266 207 629.266 207C630.266 207 631.182 206.833 632.016 206.5C632.849 206.167 633.682 205.75 634.516 205.25C636.016 204.417 637.432 203.25 638.766 201.75C639.266 201.083 639.849 200.417 640.516 199.75C641.182 199.083 641.766 198.333 642.266 197.5C642.766 196.667 643.182 195.833 643.516 195C644.016 194.167 644.516 193.333 645.016 192.5C645.349 191.667 645.682 190.833 646.016 190C646.349 189.167 646.682 188.333 647.016 187.5C647.349 186.667 647.599 185.75 647.766 184.75C647.932 183.75 648.182 182.833 648.516 182C648.849 181.167 649.182 180.333 649.516 179.5C650.016 178.5 650.432 177.583 650.766 176.75C651.099 175.917 651.266 175 651.266 174C651.266 173 651.432 172.083 651.766 171.25L653.516 166V165.75ZM579.266 207C581.432 207 583.266 206.667 584.766 206C586.099 205.333 587.599 204.167 589.266 202.5C589.932 202 590.432 201.333 590.766 200.5C591.266 199.667 591.766 198.833 592.266 198C592.766 197.167 593.266 196.417 593.766 195.75C594.432 195.083 595.016 194.333 595.516 193.5C595.849 192.667 596.182 191.833 596.516 191C596.849 190.167 597.182 189.25 597.516 188.25C597.849 187.417 598.182 186.667 598.516 186C598.849 185.167 599.182 184.333 599.516 183.5L601.766 178.5C602.099 177.667 602.266 176.75 602.266 175.75C602.266 174.75 602.432 173.833 602.766 173L604.516 168L606.266 162.75C606.266 161.917 606.182 161.083 606.016 160.25C606.016 159.25 606.016 158.333 606.016 157.5C606.016 156.667 606.016 155.75 606.016 154.75C606.182 153.75 606.266 152.833 606.266 152C606.432 151.167 606.432 150.333 606.266 149.5C606.099 148.5 606.099 147.5 606.266 146.5C606.266 145.667 606.349 144.833 606.516 144C606.682 143 606.849 142.083 607.016 141.25C607.016 140.417 607.016 139.583 607.016 138.75C607.016 137.75 607.099 136.833 607.266 136C607.266 135 607.266 134.083 607.266 133.25C607.432 132.25 607.516 131.333 607.516 130.5C607.682 129.667 607.849 128.75 608.016 127.75C608.182 126.75 608.266 125.833 608.266 125C608.432 124 608.432 123.083 608.266 122.25C608.266 121.25 608.349 120.25 608.516 119.25L609.516 113.75L610.266 108.25C610.266 108.083 610.182 108 610.016 108C608.516 106.333 606.766 105.083 604.766 104.25C603.932 103.917 602.932 103.75 601.766 103.75C600.766 103.583 599.682 103.5 598.516 103.5C597.682 103.5 596.766 103.5 595.766 103.5C594.932 103.333 594.099 103.417 593.266 103.75C592.432 104.083 591.599 104.5 590.766 105C590.099 105.333 589.349 105.75 588.516 106.25C587.682 106.583 586.849 107 586.016 107.5C585.349 108 584.682 108.583 584.016 109.25C582.849 110.25 581.682 111.583 580.516 113.25C579.849 113.917 579.266 114.583 578.766 115.25C578.432 115.917 578.016 116.667 577.516 117.5C577.016 118.333 576.516 119.167 576.016 120C575.682 120.667 575.349 121.417 575.016 122.25C574.516 123.083 574.016 123.917 573.516 124.75C573.016 125.417 572.599 126.167 572.266 127L570.266 131.75C569.932 132.583 569.599 133.417 569.266 134.25C568.932 135.083 568.599 135.917 568.266 136.75C567.932 137.583 567.766 138.5 567.766 139.5C567.766 140.333 567.599 141.167 567.266 142C566.932 142.833 566.599 143.667 566.266 144.5C565.932 145.333 565.682 146.167 565.516 147C565.182 147.833 564.932 148.75 564.766 149.75C564.766 150.583 564.682 151.417 564.516 152.25L563.766 157.5C563.599 158.333 563.516 159.25 563.516 160.25C563.682 161.083 563.766 161.917 563.766 162.75C563.599 163.583 563.516 164.5 563.516 165.5C563.516 166.333 563.516 167.167 563.516 168C563.516 168.833 563.432 169.75 563.266 170.75C563.266 171.583 563.266 172.417 563.266 173.25C563.266 174.083 563.349 175 563.516 176C563.682 176.833 563.766 177.667 563.766 178.5L564.266 183.5C564.432 184.333 564.432 185.25 564.266 186.25C564.266 187.083 564.432 187.917 564.766 188.75C564.932 189.583 565.099 190.5 565.266 191.5C565.432 192.333 565.682 193.167 566.016 194C566.349 194.833 566.682 195.667 567.016 196.5C567.516 197.167 567.932 197.917 568.266 198.75C568.599 199.583 569.016 200.333 569.516 201C570.182 201.5 570.849 202.083 571.516 202.75C572.016 203.417 572.516 204.083 573.016 204.75C573.516 205.25 574.099 205.667 574.766 206C575.432 206.333 576.099 206.5 576.766 206.5C577.599 206.5 578.432 206.5 579.266 206.5V207ZM730.281 194C731.115 194 731.948 194 732.781 194C733.615 194 734.448 193.917 735.281 193.75C736.781 193.583 738.448 193.167 740.281 192.5C742.281 192 743.865 191.333 745.031 190.5C745.865 190.167 746.615 189.75 747.281 189.25C747.948 188.75 748.698 188.25 749.531 187.75L753.281 184.25L756.031 179.75C757.031 178.083 757.865 176.583 758.531 175.25C758.865 174.417 759.198 173.667 759.531 173C759.865 172.167 760.198 171.333 760.531 170.5C760.865 169.667 761.115 168.833 761.281 168C761.615 167.167 761.865 166.333 762.031 165.5C762.865 165.333 763.448 165.333 763.781 165.5C764.115 165.5 764.615 165.833 765.281 166.5L763.781 171.5C763.448 172.333 763.031 173.167 762.531 174C762.198 174.667 761.865 175.417 761.531 176.25L759.281 180.75L756.281 185L752.781 189C752.281 189.5 751.698 190.083 751.031 190.75C750.531 191.25 749.865 191.667 749.031 192C748.365 192.5 747.615 192.917 746.781 193.25C746.115 193.583 745.365 193.917 744.531 194.25C743.031 195.083 741.531 195.583 740.031 195.75C739.198 196.083 738.365 196.417 737.531 196.75C736.698 196.917 735.865 197.083 735.031 197.25C734.198 197.25 733.365 197.333 732.531 197.5C731.865 197.5 731.115 197.5 730.281 197.5C728.115 197.5 726.031 197.25 724.031 196.75C723.031 196.417 722.031 196.167 721.031 196C720.031 195.833 719.115 195.5 718.281 195C717.615 195.833 716.948 196.5 716.281 197C715.781 197.5 715.198 198.083 714.531 198.75C713.698 199.583 712.948 200.25 712.281 200.75C711.781 201.25 711.115 201.833 710.281 202.5C708.948 203.667 707.365 204.75 705.531 205.75C704.698 206.25 703.865 206.75 703.031 207.25C702.198 207.583 701.365 207.917 700.531 208.25C698.365 208.917 696.531 209.333 695.031 209.5C693.198 210 691.365 210.25 689.531 210.25H689.281C688.448 210.25 687.531 210.167 686.531 210C685.531 210 684.615 209.917 683.781 209.75C682.948 209.583 682.031 209.417 681.031 209.25C680.198 208.917 679.365 208.583 678.531 208.25C677.698 207.917 676.781 207.667 675.781 207.5C674.948 207.167 674.115 206.75 673.281 206.25C672.448 205.917 671.698 205.5 671.031 205C670.365 204.333 669.615 203.667 668.781 203L664.281 199.5L661.281 195L658.531 190.25C658.198 189.417 657.865 188.583 657.531 187.75C657.198 186.75 656.865 185.833 656.531 185C655.698 183.167 655.031 181.5 654.531 180C654.198 179.167 654.031 178.25 654.031 177.25C654.031 176.25 653.865 175.333 653.531 174.5L652.781 169C652.781 168.167 652.698 167.333 652.531 166.5C652.531 165.5 652.531 164.5 652.531 163.5C652.531 162.667 652.531 161.833 652.531 161C652.531 160 652.615 159 652.781 158C652.781 157.167 652.781 156.333 652.781 155.5C652.948 154.5 653.031 153.5 653.031 152.5L653.781 147.25L655.031 142.25C655.365 141.417 655.531 140.583 655.531 139.75C655.531 138.75 655.698 137.833 656.031 137L658.281 132.25C658.615 131.417 658.865 130.583 659.031 129.75C659.365 128.917 659.698 128.083 660.031 127.25L662.531 122.75L665.531 118.25C666.031 117.417 666.531 116.75 667.031 116.25C667.698 115.583 668.281 114.917 668.781 114.25C669.448 113.417 670.115 112.75 670.781 112.25C671.448 111.583 672.115 111 672.781 110.5C673.615 109.833 674.365 109.25 675.031 108.75C675.698 108.083 676.448 107.5 677.281 107C678.115 106.5 678.865 106 679.531 105.5C680.198 104.833 680.948 104.333 681.781 104C682.615 103.5 683.448 103.083 684.281 102.75C685.281 102.417 686.198 102.083 687.031 101.75C687.865 101.417 688.698 101.167 689.531 101C690.531 100.833 691.448 100.667 692.281 100.5C693.115 100.333 693.948 100.25 694.781 100.25C695.781 100.083 696.781 100 697.781 100C698.448 101 698.448 102 697.781 103C696.115 103 694.448 103.25 692.781 103.75C691.281 104.417 689.865 105.333 688.531 106.5C687.698 106.833 686.948 107.333 686.281 108C685.781 108.5 685.198 109.083 684.531 109.75C684.031 110.25 683.448 110.833 682.781 111.5C682.281 112 681.781 112.667 681.281 113.5C680.115 114.833 679.198 116.25 678.531 117.75L675.531 122.25C675.198 123.083 674.865 123.917 674.531 124.75C674.198 125.583 673.865 126.417 673.531 127.25L671.531 132L669.031 142.5L668.031 147.5C667.865 148.333 667.781 149.25 667.781 150.25C667.781 151.083 667.781 152 667.781 153C667.615 153.833 667.448 154.75 667.281 155.75C667.115 156.583 667.031 157.5 667.031 158.5C666.865 159.333 666.781 160.25 666.781 161.25C666.948 162.25 667.031 163.167 667.031 164C666.865 165 666.781 166 666.781 167C666.781 167.833 666.781 168.667 666.781 169.5C666.781 170.5 666.781 171.5 666.781 172.5C666.781 173.333 666.865 174.25 667.031 175.25C667.031 176.083 667.031 177 667.031 178C667.198 179 667.365 179.917 667.531 180.75L668.531 186.25L670.281 191.5C670.615 192.333 670.948 193.167 671.281 194C671.615 194.833 672.031 195.667 672.531 196.5C673.365 198.5 674.365 200.083 675.531 201.25C676.698 202.417 678.115 203.417 679.781 204.25C680.781 204.917 682.281 205.583 684.281 206.25C685.948 206.75 687.615 207 689.281 207V207.25C689.781 207.25 690.198 207.25 690.531 207.25C691.031 207.083 691.448 207 691.781 207C692.615 206.833 693.531 206.667 694.531 206.5C695.531 206.333 696.448 206.083 697.281 205.75C699.115 205.083 700.698 204.333 702.031 203.5C703.531 202.5 704.948 201.333 706.281 200L710.031 196C711.031 194.833 712.031 193.333 713.031 191.5C712.365 191 711.781 190.5 711.281 190C710.781 189.333 710.198 188.667 709.531 188C708.865 187.333 708.198 186.75 707.531 186.25C707.031 185.75 706.531 185.083 706.031 184.25C705.531 183.417 705.031 182.667 704.531 182C704.031 181.333 703.615 180.583 703.281 179.75C702.781 178.917 702.281 178.167 701.781 177.5C701.281 176.833 700.865 176.083 700.531 175.25C700.198 174.417 699.865 173.667 699.531 173C699.365 172.167 699.115 171.333 698.781 170.5L697.281 165.5C696.948 164.667 696.698 163.833 696.531 163C696.531 162.167 696.448 161.333 696.281 160.5C695.948 159.667 695.615 158.833 695.281 158C695.115 157.167 694.948 156.333 694.781 155.5L694.281 150.25C694.281 149.417 694.198 148.583 694.031 147.75C693.865 146.917 693.781 146.083 693.781 145.25C693.615 144.417 693.531 143.583 693.531 142.75C693.698 141.75 693.781 140.833 693.781 140C693.781 139 693.781 138.083 693.781 137.25C693.781 136.25 693.865 135.333 694.031 134.5C694.031 133.5 694.031 132.583 694.031 131.75C694.198 130.75 694.365 129.75 694.531 128.75C694.698 127.917 694.781 127 694.781 126C694.781 125 694.948 124.083 695.281 123.25L696.781 118C697.115 117 697.448 116.083 697.781 115.25C698.115 114.417 698.448 113.583 698.781 112.75C699.115 111.917 699.531 111.083 700.031 110.25C700.531 109.417 700.948 108.667 701.281 108L705.031 104C706.698 102.667 708.198 101.75 709.531 101.25C711.031 100.583 712.781 100.25 714.781 100.25C717.115 100.25 719.281 100.75 721.281 101.75C723.448 102.75 725.198 104.083 726.531 105.75C728.031 107.25 729.198 108.75 730.031 110.25L732.281 115.5L733.781 121C734.115 121.833 734.281 122.75 734.281 123.75C734.448 124.75 734.615 125.667 734.781 126.5L735.531 132.25C735.531 133.083 735.615 134 735.781 135C735.948 136 736.031 137 736.031 138C736.031 138.833 736.031 139.75 736.031 140.75C736.031 141.75 735.948 142.667 735.781 143.5C735.781 144.5 735.781 145.5 735.781 146.5C735.948 147.333 735.948 148.25 735.781 149.25C735.781 150.25 735.698 151.25 735.531 152.25C735.531 153.083 735.448 154 735.281 155C735.115 155.833 734.948 156.667 734.781 157.5C734.781 158.333 734.615 159.167 734.281 160C734.115 160.833 734.031 161.667 734.031 162.5C734.031 163.333 733.865 164.167 733.531 165C733.198 165.833 732.865 166.667 732.531 167.5C732.365 168.167 732.115 168.917 731.781 169.75L730.031 174.5C729.698 175.333 729.365 176.167 729.031 177C728.865 177.667 728.615 178.417 728.281 179.25L725.781 183.5C725.448 184.333 725.031 185.083 724.531 185.75C724.198 186.417 723.781 187.167 723.281 188C722.781 188.833 722.281 189.583 721.781 190.25C721.448 190.75 720.948 191.417 720.281 192.25L725.281 193.5C726.115 193.667 726.948 193.833 727.781 194C728.615 194 729.448 194 730.281 194ZM714.781 103.5C712.948 103.5 711.198 104 709.531 105C707.865 105.833 706.365 106.917 705.031 108.25C704.531 108.917 704.031 109.667 703.531 110.5C703.198 111.333 702.781 112.167 702.281 113C701.948 113.833 701.531 114.667 701.031 115.5C700.698 116.333 700.365 117.167 700.031 118L698.531 123.5C698.198 124.833 697.865 126.667 697.531 129L697.031 134.5C697.031 135.333 696.948 136.25 696.781 137.25C696.781 138.25 696.781 139.167 696.781 140C696.781 140.833 696.781 141.75 696.781 142.75C696.948 143.583 697.031 144.417 697.031 145.25L697.531 150.75C697.698 151.583 697.781 152.5 697.781 153.5C697.781 154.333 697.948 155.167 698.281 156C698.448 156.833 698.615 157.75 698.781 158.75C698.948 159.583 699.198 160.417 699.531 161.25C699.698 162.083 699.865 163 700.031 164C700.198 164.833 700.448 165.667 700.781 166.5C701.115 167.333 701.448 168.167 701.781 169C702.115 169.833 702.448 170.667 702.781 171.5C703.115 172.333 703.448 173.167 703.781 174C704.115 174.667 704.531 175.417 705.031 176.25C705.865 178.083 706.698 179.667 707.531 181L710.781 185.25L714.781 189L717.031 184.25C717.365 183.417 717.615 182.667 717.781 182C718.115 181.167 718.448 180.333 718.781 179.5L720.531 174.5C721.198 172.667 721.615 171.083 721.781 169.75L723.281 164.75L724.031 159.75L724.531 154.5L725.281 149C725.448 148.167 725.448 147.333 725.281 146.5C725.281 145.5 725.365 144.583 725.531 143.75C725.698 142.75 725.781 141.833 725.781 141C725.948 140 726.031 139.083 726.031 138.25C726.198 137.25 726.281 136.333 726.281 135.5C726.448 134.5 726.531 133.583 726.531 132.75C726.531 131.75 726.448 130.833 726.281 130C726.281 129 726.281 128.083 726.281 127.25C726.281 126.25 726.365 125.333 726.531 124.5C726.698 123.5 726.698 122.583 726.531 121.75C726.531 120.75 726.448 119.833 726.281 119C726.281 118 726.198 117.083 726.031 116.25L724.531 111C724.198 110.167 723.781 109.333 723.281 108.5C722.948 107.667 722.448 106.917 721.781 106.25C720.281 104.583 718.281 103.583 715.781 103.25H714.781V103.5ZM834.93 192.5C835.763 191.833 836.43 191.25 836.93 190.75C837.43 190.083 838.013 189.333 838.68 188.5L842.68 184.75L845.93 180.25C846.43 179.417 846.846 178.667 847.18 178C847.68 177.167 848.096 176.333 848.43 175.5L851.18 170.75C851.846 169.25 852.43 167.583 852.93 165.75C853.763 165.583 854.346 165.5 854.68 165.5C855.013 165.5 855.43 165.75 855.93 166.25C855.763 167.083 855.513 168 855.18 169C854.846 170 854.513 170.917 854.18 171.75C853.846 172.583 853.43 173.417 852.93 174.25C852.43 175.083 851.93 175.917 851.43 176.75C851.096 177.583 850.68 178.417 850.18 179.25C849.846 179.917 849.43 180.667 848.93 181.5L845.18 186L841.68 190.25L837.93 194.25C837.096 194.917 836.346 195.583 835.68 196.25C835.18 196.75 834.513 197.25 833.68 197.75C832.846 198.417 832.096 199.083 831.43 199.75C830.763 200.25 830.013 200.75 829.18 201.25L824.43 204.25C823.596 204.75 822.763 205.25 821.93 205.75C821.096 206.083 820.263 206.417 819.43 206.75C818.596 207.083 817.68 207.417 816.68 207.75C815.846 207.917 815.013 208.167 814.18 208.5C813.346 208.833 812.43 209.083 811.43 209.25C810.596 209.417 809.68 209.583 808.68 209.75C807.846 209.917 806.93 210 805.93 210C805.096 210.167 804.18 210.25 803.18 210.25C802.346 210.25 801.43 210.25 800.43 210.25C799.43 210.25 798.513 210.167 797.68 210L792.18 209C791.346 208.667 790.43 208.417 789.43 208.25C788.596 207.917 787.763 207.583 786.93 207.25C786.096 206.917 785.18 206.583 784.18 206.25C783.346 205.75 782.513 205.25 781.68 204.75C780.846 204.417 780.096 203.917 779.43 203.25C778.763 202.583 778.096 201.917 777.43 201.25C775.93 200.25 774.513 199.083 773.18 197.75L769.68 193.5L767.18 188.75C766.846 187.917 766.43 187.167 765.93 186.5C765.596 185.667 765.263 184.833 764.93 184C764.596 183.167 764.263 182.333 763.93 181.5C763.763 180.667 763.513 179.833 763.18 179C762.846 178.167 762.596 177.333 762.43 176.5C762.263 175.5 762.096 174.583 761.93 173.75L761.18 168.5C761.18 167.667 761.096 166.833 760.93 166C760.93 165 760.93 164.083 760.93 163.25C760.93 162.417 760.93 161.583 760.93 160.75C760.93 159.75 761.013 158.75 761.18 157.75C761.18 156.917 761.18 156.083 761.18 155.25C761.346 154.25 761.513 153.333 761.68 152.5L762.43 147.5C762.596 146.667 762.68 145.833 762.68 145C762.846 144 763.096 143.083 763.43 142.25C763.596 140.75 764.013 139.083 764.68 137.25C765.013 136.417 765.263 135.583 765.43 134.75C765.763 133.917 766.096 133.083 766.43 132.25L768.68 127.5C769.013 126.667 769.43 125.917 769.93 125.25C770.43 124.417 770.846 123.583 771.18 122.75C771.68 121.917 772.096 121.167 772.43 120.5C772.93 119.833 773.43 119.167 773.93 118.5L777.43 114.5C778.096 113.667 778.68 112.917 779.18 112.25C779.68 111.583 780.346 110.917 781.18 110.25C781.846 109.583 782.513 109 783.18 108.5C783.846 108 784.596 107.5 785.43 107C786.263 106.333 787.013 105.833 787.68 105.5C788.513 105 789.346 104.5 790.18 104L795.43 101.75C796.263 101.417 797.096 101.167 797.93 101C798.93 100.833 799.846 100.667 800.68 100.5C801.513 100.333 802.43 100.167 803.43 100C804.43 99.8333 805.346 99.75 806.18 99.75C808.013 99.75 809.846 100 811.68 100.5C813.513 101 815.18 101.75 816.68 102.75C817.513 103.25 818.263 103.75 818.93 104.25C819.596 104.75 820.263 105.417 820.93 106.25C821.596 106.917 822.18 107.667 822.68 108.5C823.18 109.167 823.68 109.917 824.18 110.75C824.513 111.583 824.846 112.5 825.18 113.5C825.513 114.333 825.846 115.167 826.18 116C826.513 116.833 826.68 117.75 826.68 118.75C826.68 119.75 826.68 120.667 826.68 121.5C826.846 122.333 826.93 123.25 826.93 124.25C827.096 125.25 827.18 126.167 827.18 127C827.18 127.833 827.18 128.75 827.18 129.75C827.18 130.583 827.096 131.5 826.93 132.5L826.43 137.75L824.93 142.75C824.596 143.583 824.263 144.417 823.93 145.25C823.763 146.083 823.513 146.917 823.18 147.75C822.846 148.583 822.43 149.417 821.93 150.25C821.596 151.083 821.18 151.917 820.68 152.75C819.846 152.75 819.263 152.667 818.93 152.5C818.763 152.167 818.43 151.667 817.93 151C818.43 150.167 818.846 149.417 819.18 148.75C819.68 148.083 820.096 147.333 820.43 146.5L823.43 137C823.596 136.167 823.68 135.333 823.68 134.5C823.846 133.667 823.93 132.833 823.93 132C824.096 131.167 824.18 130.333 824.18 129.5C824.18 128.667 824.18 127.833 824.18 127C824.18 126.333 824.18 125.583 824.18 124.75C824.18 123.75 824.013 122.667 823.68 121.5C823.513 120.667 823.346 119.833 823.18 119C823.013 118 822.763 117 822.43 116C821.93 114.333 821.18 112.583 820.18 110.75C819.346 109.417 818.096 108.083 816.43 106.75C815.763 106.083 815.013 105.5 814.18 105C813.513 104.5 812.68 104.083 811.68 103.75C810.18 103.25 808.346 103 806.18 103C805.346 103 804.513 103.083 803.68 103.25C802.846 103.417 802.013 103.667 801.18 104C800.346 104.333 799.596 104.75 798.93 105.25C798.263 105.583 797.513 106 796.68 106.5C796.013 106.833 795.346 107.333 794.68 108C794.18 108.5 793.596 109.083 792.93 109.75C792.263 110.25 791.68 110.833 791.18 111.5C790.68 112 790.096 112.667 789.43 113.5L786.43 117.5L783.93 122.25C783.596 123.083 783.263 123.917 782.93 124.75C782.596 125.583 782.263 126.417 781.93 127.25C781.596 128.083 781.263 128.917 780.93 129.75C780.763 130.583 780.513 131.417 780.18 132.25L778.68 137.25C778.346 138.083 778.096 139 777.93 140C777.93 140.833 777.846 141.667 777.68 142.5C777.346 143.333 777.096 144.167 776.93 145C776.763 145.833 776.596 146.667 776.43 147.5C776.263 148.333 776.096 149.25 775.93 150.25C775.93 151.083 775.93 151.917 775.93 152.75C775.763 153.75 775.68 154.75 775.68 155.75C775.68 156.583 775.68 157.417 775.68 158.25C775.513 159.25 775.346 160.25 775.18 161.25C775.18 162.083 775.18 162.917 775.18 163.75V169L775.68 174.5C775.68 175.333 775.68 176.25 775.68 177.25C775.846 178.25 776.013 179.167 776.18 180L777.68 185.25L779.43 190.25L781.68 195.25C782.18 196.083 782.68 196.833 783.18 197.5C783.68 198.167 784.263 198.833 784.93 199.5C786.096 200.667 787.43 201.75 788.93 202.75C790.43 203.917 791.846 204.75 793.18 205.25C794.013 205.583 794.846 205.833 795.68 206C796.513 206.167 797.346 206.333 798.18 206.5C799.013 206.667 799.846 206.833 800.68 207C801.513 207 802.346 207 803.18 207C804.013 207 804.846 207.083 805.68 207.25C806.68 207.25 807.596 207.167 808.43 207C809.263 206.833 810.013 206.667 810.68 206.5C811.513 206.167 812.346 205.833 813.18 205.5C815.18 205 816.763 204.417 817.93 203.75L822.68 201.75C823.513 201.417 824.263 201 824.93 200.5C825.596 199.833 826.263 199.25 826.93 198.75C828.43 198.083 829.846 197.167 831.18 196C832.013 195.5 832.68 195 833.18 194.5C833.68 193.833 834.263 193.167 834.93 192.5ZM916.744 187.75L918.744 182.25C919.077 181.417 919.411 180.583 919.744 179.75C920.077 178.75 920.411 177.75 920.744 176.75C921.077 175.917 921.327 175 921.494 174C921.827 173 922.161 172.083 922.494 171.25L923.994 165.5C924.827 165.333 925.411 165.333 925.744 165.5C926.077 165.5 926.577 165.75 927.244 166.25L925.744 171.25L924.244 176C923.911 176.833 923.577 177.667 923.244 178.5C923.077 179.167 922.827 179.917 922.494 180.75L920.994 185.25C920.661 186.083 920.327 186.917 919.994 187.75C919.827 188.417 919.577 189.167 919.244 190C918.911 190.833 918.577 191.583 918.244 192.25C917.911 192.917 917.577 193.667 917.244 194.5C916.744 195.333 916.244 196.083 915.744 196.75C915.411 197.417 914.994 198.083 914.494 198.75C913.327 200.583 912.411 202 911.744 203C911.077 203.833 910.411 204.5 909.744 205C909.077 205.5 908.494 206 907.994 206.5C907.161 207 906.411 207.5 905.744 208C905.244 208.5 904.577 208.917 903.744 209.25C902.911 209.583 902.077 209.833 901.244 210C900.411 210.167 899.577 210.25 898.744 210.25C897.077 210.25 895.494 210 893.994 209.5C893.161 209.333 892.411 209.167 891.744 209C891.077 208.833 890.327 208.583 889.494 208.25C888.161 207.75 886.827 207 885.494 206C884.827 205.5 884.161 205 883.494 204.5C882.994 204 882.494 203.417 881.994 202.75C880.827 201.417 879.744 199.833 878.744 198L876.494 193C876.161 191.667 875.827 189.833 875.494 187.5C875.161 186.667 874.994 185.833 874.994 185C874.994 184 874.911 183 874.744 182C874.744 181.167 874.661 180.25 874.494 179.25C874.327 178.25 874.244 177.333 874.244 176.5C874.244 175.5 874.327 174.583 874.494 173.75C874.661 172.75 874.744 171.75 874.744 170.75L875.244 165.25C875.244 163.417 875.494 161.583 875.994 159.75C876.161 158.917 876.327 158.083 876.494 157.25C876.661 156.25 876.911 155.25 877.244 154.25C877.577 153.417 877.744 152.583 877.744 151.75C877.744 150.75 877.911 149.833 878.244 149C878.411 148 878.577 147.083 878.744 146.25C878.911 145.25 879.161 144.333 879.494 143.5L881.244 138.25L882.494 132.75C882.827 131.75 883.077 130.833 883.244 130C883.577 129 883.827 128 883.994 127L885.244 121.5C885.577 120.5 885.744 119.5 885.744 118.5C885.744 117.5 885.827 116.583 885.994 115.75C886.161 114.75 886.327 113.75 886.494 112.75C886.827 111.75 886.911 110.833 886.744 110C886.744 107.667 886.244 105.833 885.244 104.5C884.577 103.667 883.411 103.25 881.744 103.25C880.911 103.25 880.077 103.333 879.244 103.5C878.577 103.667 877.827 104.083 876.994 104.75C876.327 105.25 875.744 105.833 875.244 106.5C874.744 107.167 874.244 107.917 873.744 108.75C873.411 109.417 872.994 110.167 872.494 111C871.994 111.667 871.577 112.417 871.244 113.25C870.911 113.917 870.494 114.667 869.994 115.5C869.494 116.167 869.077 116.917 868.744 117.75C868.411 118.583 868.077 119.5 867.744 120.5C867.577 121.333 867.327 122.25 866.994 123.25C866.661 124.083 866.327 125 865.994 126C865.827 126.833 865.577 127.667 865.244 128.5L863.744 134C863.411 135 863.161 136 862.994 137C862.994 137.833 862.911 138.75 862.744 139.75C862.411 140.583 862.077 141.5 861.744 142.5C861.577 143.333 861.411 144.25 861.244 145.25L859.744 150.75L858.494 156.5L857.244 162.5L855.744 168.25C854.911 168.583 854.327 168.667 853.994 168.5C853.661 168.167 853.244 167.75 852.744 167.25L854.244 161.5C854.911 159.333 855.327 157.417 855.494 155.75C856.161 153.583 856.577 151.667 856.744 150L857.994 144.75C858.161 143.917 858.327 143.083 858.494 142.25C858.661 141.25 858.911 140.333 859.244 139.5C859.411 138.667 859.577 137.833 859.744 137C860.077 136.167 860.411 135.333 860.744 134.5L861.994 129.25C862.327 128.417 862.577 127.583 862.744 126.75C862.911 125.75 863.161 124.833 863.494 124L864.994 119L867.244 114C867.577 113.167 867.911 112.333 868.244 111.5C868.577 110.667 868.994 109.917 869.494 109.25C869.994 108.417 870.494 107.667 870.994 107C871.661 106.333 872.244 105.667 872.744 105C874.244 103.333 875.577 102.167 876.744 101.5C877.577 101.167 878.411 100.833 879.244 100.5C880.077 100.167 880.911 100 881.744 100V100.25C883.577 100.25 885.244 100.5 886.744 101C888.077 101.667 889.411 102.667 890.744 104C891.244 104.833 891.744 105.667 892.244 106.5C892.911 107.167 893.411 107.917 893.744 108.75C894.077 109.583 894.244 110.5 894.244 111.5C894.244 112.333 894.327 113.25 894.494 114.25C894.661 115.083 894.744 116 894.744 117C894.911 117.833 894.994 118.75 894.994 119.75C894.994 120.583 894.911 121.5 894.744 122.5C894.744 123.5 894.744 124.417 894.744 125.25C894.577 126.25 894.494 127.25 894.494 128.25C894.494 129.083 894.494 130 894.494 131L893.744 136.5L892.744 142L891.744 147.25C891.411 149.583 891.077 151.417 890.744 152.75L889.494 160.25L888.494 165.75L887.744 171.25C887.577 172.25 887.411 173.25 887.244 174.25C887.244 175.083 887.244 175.917 887.244 176.75C887.077 177.75 886.994 178.75 886.994 179.75C887.161 180.75 887.244 181.667 887.244 182.5C887.077 183.5 886.911 184.5 886.744 185.5C886.744 186.333 886.827 187.167 886.994 188C886.994 189 887.077 190 887.244 191C887.411 191.833 887.577 192.667 887.744 193.5C888.077 195.833 888.411 197.667 888.744 199C889.077 200 889.494 200.917 889.994 201.75C890.494 202.417 890.994 203.083 891.494 203.75C892.827 205.083 893.911 205.917 894.744 206.25C895.911 206.75 897.244 207 898.744 207C900.411 207 902.161 206.5 903.994 205.5C904.661 205.167 905.327 204.75 905.994 204.25C906.827 203.75 907.577 203.083 908.244 202.25C909.244 201.25 910.327 199.75 911.494 197.75C912.327 196.417 913.161 194.833 913.994 193L916.744 187.75ZM890.244 76.25C887.911 76.25 886.161 75.5 884.994 74C883.494 72.5 882.744 70.75 882.744 68.75C882.744 67.4167 883.161 65.9167 883.994 64.25C884.827 62.75 885.827 61.6667 886.994 61C888.161 60.1667 889.494 59.5833 890.994 59.25H892.244C894.411 59.25 896.161 60 897.494 61.5C898.994 63 899.744 64.75 899.744 66.75C899.744 68.0833 899.327 69.5833 898.494 71.25C897.661 72.75 896.661 73.8333 895.494 74.5C894.327 75.3333 892.994 75.9167 891.494 76.25H890.244ZM1028.04 165.5C1028.87 165.333 1029.46 165.25 1029.79 165.25C1030.29 165.25 1030.71 165.667 1031.04 166.5L1029.54 172.25C1029.21 173.083 1028.96 174 1028.79 175C1028.62 176 1028.37 176.917 1028.04 177.75L1025.79 183.5C1025.46 184.333 1025.12 185.25 1024.79 186.25C1024.62 187.25 1024.37 188.167 1024.04 189C1023.71 190 1023.29 190.917 1022.79 191.75C1022.29 192.583 1021.79 193.417 1021.29 194.25C1020.96 195.083 1020.62 195.917 1020.29 196.75C1019.96 197.417 1019.62 198.083 1019.29 198.75L1016.79 203C1016.12 203.667 1015.54 204.333 1015.04 205C1014.54 205.5 1013.96 206 1013.29 206.5C1012.12 207.667 1010.71 208.5 1009.04 209C1007.37 209.833 1005.79 210.25 1004.29 210.25C1002.62 210.25 1001.04 210 999.539 209.5C998.706 209.167 997.956 208.917 997.289 208.75C996.622 208.417 995.956 208 995.289 207.5C994.122 206.833 992.956 205.75 991.789 204.25C990.622 203.083 989.539 201.5 988.539 199.5C988.206 198.667 987.872 197.833 987.539 197C987.206 196.167 986.872 195.25 986.539 194.25L985.289 188.75L984.289 183C984.122 182.167 983.956 181.333 983.789 180.5C983.789 179.5 983.789 178.5 983.789 177.5C983.789 176.5 983.789 175.583 983.789 174.75C983.789 173.75 983.706 172.75 983.539 171.75V166C983.539 165.167 983.539 164.333 983.539 163.5C983.706 162.5 983.789 161.5 983.789 160.5L982.289 165.75L980.789 171.25L979.039 176.5C978.706 177.5 978.372 178.5 978.039 179.5C977.872 180.333 977.622 181.167 977.289 182L973.289 192.5C972.956 193.333 972.539 194.167 972.039 195C971.539 195.833 971.039 196.667 970.539 197.5C970.039 198.333 969.539 199.083 969.039 199.75C968.539 200.417 967.956 201.167 967.289 202L963.539 206C961.539 207.5 959.872 208.417 958.539 208.75C956.539 209.583 954.706 210 953.039 210C952.206 210 951.372 210 950.539 210C949.706 209.833 948.872 209.667 948.039 209.5C947.206 209.167 946.372 208.833 945.539 208.5C944.872 208 944.122 207.583 943.289 207.25C942.456 206.917 941.706 206.583 941.039 206.25C940.372 205.917 939.622 205.417 938.789 204.75C938.122 204.25 937.539 203.667 937.039 203C936.539 202.333 936.039 201.667 935.539 201C934.872 200.333 934.206 199.75 933.539 199.25C933.039 198.583 932.539 197.833 932.039 197C931.706 196.167 931.289 195.417 930.789 194.75C930.289 194.083 929.789 193.333 929.289 192.5C928.622 191.333 928.039 189.75 927.539 187.75L925.539 183L924.289 177.75L923.539 172.75C923.372 171.917 923.206 171.083 923.039 170.25C923.039 169.25 923.039 168.333 923.039 167.5C923.039 166.667 923.039 165.833 923.039 165C923.206 164 923.289 163.083 923.289 162.25C923.289 161.417 923.289 160.583 923.289 159.75C923.289 158.917 923.372 158.083 923.539 157.25L924.289 152C924.622 150 924.956 148.333 925.289 147L926.789 142L928.539 137.25C928.872 136.417 929.206 135.667 929.539 135C929.872 134.167 930.206 133.333 930.539 132.5L932.789 127.75L938.789 119.25L942.039 115.5L946.039 111.5C946.872 110.833 947.622 110.333 948.289 110C948.956 109.5 949.706 108.917 950.539 108.25C951.372 107.75 952.122 107.25 952.789 106.75C953.456 106.083 954.206 105.583 955.039 105.25C956.539 104.25 958.206 103.5 960.039 103C960.872 102.667 961.706 102.333 962.539 102C963.539 101.667 964.456 101.417 965.289 101.25C966.122 100.917 966.956 100.667 967.789 100.5C968.789 100.333 969.706 100.167 970.539 100H976.039C977.039 100 977.956 100.083 978.789 100.25C979.622 100.25 980.456 100.333 981.289 100.5C983.622 100.833 985.372 101.167 986.539 101.5C988.039 101.833 989.539 102.667 991.039 104C993.039 105.5 994.372 107 995.039 108.5C995.539 109.333 995.789 110.25 995.789 111.25C995.956 112.25 996.039 113.25 996.039 114.25C996.039 115.083 996.039 115.917 996.039 116.75C996.039 117.583 995.872 118.417 995.539 119.25C995.206 120.083 994.789 120.833 994.289 121.5C993.956 122.167 993.539 122.917 993.039 123.75C992.706 124.583 992.206 125.25 991.539 125.75C991.039 126.25 990.456 126.833 989.789 127.5C989.122 128.167 988.456 128.833 987.789 129.5C987.289 130 986.622 130.417 985.789 130.75C984.956 131.25 984.206 131.75 983.539 132.25C982.872 132.583 982.122 132.917 981.289 133.25L976.539 135C975.872 134.333 975.456 133.917 975.289 133.75C975.122 133.417 975.206 132.833 975.539 132C976.372 131.667 977.122 131.333 977.789 131C978.622 130.5 979.456 130.083 980.289 129.75C981.122 129.417 981.956 129.083 982.789 128.75C983.622 128.417 984.372 128 985.039 127.5C985.872 126.833 986.622 126.25 987.289 125.75C987.956 125.083 988.539 124.417 989.039 123.75C990.039 122.417 991.039 121 992.039 119.5C992.706 117.667 993.039 115.917 993.039 114.25C993.039 113.417 992.956 112.667 992.789 112C992.789 111.167 992.622 110.417 992.289 109.75C991.956 109.083 991.456 108.583 990.789 108.25C990.289 107.75 989.706 107.25 989.039 106.75C988.039 105.75 986.789 105 985.289 104.5C984.456 104.167 983.706 103.917 983.039 103.75C982.372 103.583 981.622 103.417 980.789 103.25C979.956 103.083 979.122 103.083 978.289 103.25C977.622 103.25 976.872 103.25 976.039 103.25C975.206 103.25 974.289 103.25 973.289 103.25C972.456 103.083 971.622 103.167 970.789 103.5C969.956 103.667 969.039 103.917 968.039 104.25C967.206 104.583 966.372 104.917 965.539 105.25C964.706 105.583 963.872 106 963.039 106.5C962.372 106.833 961.622 107.25 960.789 107.75C959.956 108.25 959.206 108.833 958.539 109.5C958.039 110 957.456 110.583 956.789 111.25C956.122 111.917 955.456 112.5 954.789 113C954.122 113.5 953.456 114.167 952.789 115C952.289 115.667 951.706 116.417 951.039 117.25C950.539 117.917 950.039 118.667 949.539 119.5C949.039 120.333 948.539 121.167 948.039 122C947.706 122.833 947.289 123.667 946.789 124.5L944.539 129.75C944.206 130.583 943.872 131.5 943.539 132.5C943.372 133.333 943.122 134.25 942.789 135.25L941.039 140.5L939.789 146.25L938.789 152C938.456 153.333 938.122 155.167 937.789 157.5C937.622 158.333 937.456 159.25 937.289 160.25C937.289 161.083 937.289 161.917 937.289 162.75C937.122 163.583 937.039 164.5 937.039 165.5C937.206 166.333 937.289 167.167 937.289 168C937.289 168.833 937.206 169.75 937.039 170.75C937.039 171.583 937.039 172.417 937.039 173.25C937.039 174.083 937.039 175 937.039 176C937.206 176.833 937.372 177.667 937.539 178.5C937.539 179.333 937.622 180.167 937.789 181C937.956 181.833 938.122 182.667 938.289 183.5L939.039 188.75L940.289 193.75C940.622 194.583 940.956 195.417 941.289 196.25C941.622 196.917 941.956 197.667 942.289 198.5C942.789 199.333 943.206 200.167 943.539 201C944.039 201.667 944.622 202.333 945.289 203C945.789 203.667 946.289 204.25 946.789 204.75C947.456 205.083 948.122 205.417 948.789 205.75C950.456 206.417 951.872 206.75 953.039 206.75C954.872 206.75 956.622 206.333 958.289 205.5C959.789 204.833 961.289 203.75 962.789 202.25C963.456 201.583 964.039 200.917 964.539 200.25C965.206 199.583 965.789 198.833 966.289 198C967.289 196.833 968.289 195.333 969.289 193.5C969.622 192.667 969.956 191.833 970.289 191C970.622 190.167 970.956 189.25 971.289 188.25C971.622 187.417 971.956 186.667 972.289 186C972.789 185.167 973.206 184.333 973.539 183.5C974.206 182 974.789 180.333 975.289 178.5C975.622 177.667 975.872 176.833 976.039 176C976.206 175 976.456 174.083 976.789 173.25L978.289 168L980.039 163C980.372 162.167 980.539 161.333 980.539 160.5C980.706 159.5 980.872 158.583 981.039 157.75L982.789 152.5L984.039 147.5L985.289 142.25C985.622 141.417 985.789 140.583 985.789 139.75C985.956 138.75 986.122 137.833 986.289 137C986.456 136.667 986.539 136.333 986.539 136C986.539 135.667 986.706 135.5 987.039 135.5C988.706 135.333 989.789 135.417 990.289 135.75C990.789 135.917 991.872 136.083 993.539 136.25C995.206 136.583 996.289 136.667 996.789 136.5C997.456 136.167 998.539 136.333 1000.04 137C1000.37 137.167 1000.37 137.417 1000.04 137.75C999.872 138.083 999.706 138.417 999.539 138.75C999.372 139.583 999.206 140.5 999.039 141.5C999.039 142.5 998.872 143.417 998.539 144.25L997.539 149.75L996.039 160.75L995.039 166.25C994.872 167.083 994.789 168 994.789 169C994.956 170 994.956 170.917 994.789 171.75C994.789 172.75 994.706 173.75 994.539 174.75C994.372 175.583 994.289 176.417 994.289 177.25C994.122 178.25 994.122 179.25 994.289 180.25C994.456 181.083 994.539 182 994.539 183C994.539 183.833 994.456 184.75 994.289 185.75C994.289 186.75 994.372 187.667 994.539 188.5C994.539 189.5 994.622 190.5 994.789 191.5C994.956 192.333 995.122 193.167 995.289 194C995.456 195 995.539 196 995.539 197C995.539 197.833 995.706 198.667 996.039 199.5C996.706 201.167 997.622 202.75 998.789 204.25C1000.46 206.25 1002.29 207.25 1004.29 207.25V207C1005.29 207 1006.21 206.833 1007.04 206.5C1007.87 206.167 1008.71 205.75 1009.54 205.25C1010.87 204.417 1012.21 203.167 1013.54 201.5C1014.54 200.5 1015.62 199 1016.79 197C1017.29 196.167 1017.71 195.333 1018.04 194.5C1018.54 193.667 1018.96 192.833 1019.29 192C1019.62 191.167 1019.96 190.333 1020.29 189.5C1020.79 188.667 1021.21 187.833 1021.54 187L1023.54 181.75L1024.79 176.25C1025.12 175.417 1025.37 174.583 1025.54 173.75C1025.87 172.75 1026.21 171.833 1026.54 171L1028.04 165.5Z" fill="black"/>
</svg>
